<svg width="48" height="49" viewBox="0 0 48 49" fill="none" xmlns="http://www.w3.org/2000/svg">
<path d="M24.0005 43.0025C25.0623 43.0025 26.0806 42.5807 26.8315 41.83L41.3305 27.331C42.0783 26.5786 42.498 25.5608 42.498 24.5C42.498 23.4392 42.0783 22.4214 41.3305 21.669L26.8315 7.16999C26.0791 6.42217 25.0613 6.00244 24.0005 6.00244C22.9396 6.00244 21.9219 6.42217 21.1695 7.16999L6.67048 21.669C5.92266 22.4214 5.50293 23.4392 5.50293 24.5C5.50293 25.5608 5.92266 26.5786 6.67048 27.331L21.1695 41.83C21.9204 42.5807 22.9387 43.0025 24.0005 43.0025ZM24.0005 43.0025V24.5M24.0005 24.5L10.1405 18.199M24.0005 24.5L37.8605 18.199" stroke="#fff" stroke-linecap="round" stroke-linejoin="round"/>
</svg>
