<svg width="48" height="49" viewBox="0 0 48 49" fill="none" xmlns="http://www.w3.org/2000/svg">
<path d="M10.2857 46.7857V19.3571C10.2857 15.7199 11.7306 12.2316 14.3025 9.65964C16.8745 7.08772 20.3627 5.64282 24 5.64282C27.6373 5.64282 31.1255 7.08772 33.6975 9.65964C36.2694 12.2316 37.7143 15.7199 37.7143 19.3571V46.7857M10.2857 38.2143H37.7143" stroke="#fff" stroke-linecap="round" stroke-linejoin="round"/>
<path d="M1.71429 34.7857V27.9285C1.71429 26.1099 2.43673 24.3658 3.7227 23.0798C5.00866 21.7938 6.7528 21.0714 8.57143 21.0714H39.4286C41.2472 21.0714 42.9913 21.7938 44.2773 23.0798C45.5633 24.3658 46.2857 26.1099 46.2857 27.9285V34.7857M37.7143 2.21423L31.8171 8.11138M10.2857 2.21423L16.1829 8.11138" stroke="#fff" stroke-linecap="round" stroke-linejoin="round"/>
</svg>
