<svg width="119" height="40" viewBox="0 0 119 40" fill="none" xmlns="http://www.w3.org/2000/svg">
<g clip-path="url(#clip0_221_863)">
<path d="M60.3353 6.29371C61.2455 6.77284 61.9865 7.52006 62.4579 8.43421C62.9877 9.49912 63.2463 10.6784 63.2107 11.8673V19.458H60.6694V15.935H53.549V19.458H51.0461V11.8673C51.0127 10.6783 51.2721 9.49931 51.8016 8.43421C52.2739 7.52065 53.0146 6.77365 53.9241 6.29371C54.9271 5.81459 56.0246 5.56592 57.1361 5.56592C58.2477 5.56592 59.3452 5.81459 60.3483 6.29371H60.3353ZM60.6694 13.8048V11.6334C60.6694 10.3691 60.3567 9.41409 59.7314 8.76826C59.1063 8.12242 58.2325 7.79951 57.1105 7.79951C55.9867 7.79951 55.113 8.12242 54.4894 8.76826C53.8659 9.41409 53.5524 10.3691 53.549 11.6334V13.8048H60.6694Z" fill="white"/>
<path d="M79.5818 5.76416V19.4578H77.1381V17.7155C76.2096 19.0055 74.7748 19.6513 72.8339 19.653C71.2168 19.653 69.9457 19.1476 69.0206 18.1369C68.0956 17.1262 67.6321 15.6949 67.6305 13.8431V5.76416H70.1744V13.7454C70.1744 14.9583 70.4647 15.874 71.0455 16.4923C71.6263 17.1108 72.4245 17.4208 73.4404 17.4226C74.5351 17.4226 75.4087 17.0936 76.0614 16.4359C76.7141 15.778 77.0405 14.7965 77.0405 13.4911V5.76416H79.5818Z" fill="white"/>
<path d="M93.1962 19.4581L90.3978 15.4418C90.2227 15.4575 90.0469 15.4645 89.8711 15.4623H86.7875V19.4529H84.2462V5.7645H89.8787C90.9416 5.74132 91.9973 5.9418 92.9777 6.35293C93.805 6.69896 94.51 7.28414 95.0026 8.03347C95.4862 8.81394 95.7309 9.71874 95.7066 10.6365C95.7316 11.5789 95.4689 12.5066 94.9538 13.2961C94.423 14.0607 93.6678 14.6416 92.7927 14.9587L95.9405 19.4581H93.1962ZM92.2763 8.62192C91.7024 8.15253 90.8612 7.91785 89.7529 7.91785H86.7798V13.386H89.7529C90.8594 13.386 91.7006 13.1479 92.2763 12.6716C92.5654 12.4234 92.7937 12.1119 92.943 11.7611C93.0923 11.4104 93.1586 11.0299 93.1371 10.6494C93.1614 10.2677 93.0964 9.88565 92.9468 9.53364C92.7974 9.18163 92.5678 8.86943 92.2763 8.62192Z" fill="white"/>
<path d="M108.686 6.29371C109.595 6.77432 110.335 7.52114 110.808 8.43421C111.337 9.49954 111.595 10.6785 111.561 11.8673V19.458H109.017V15.935H101.91V19.458H99.4043V11.8673C99.37 10.6785 99.6285 9.49954 100.157 8.43421C100.63 7.52114 101.371 6.77432 102.28 6.29371C103.283 5.81459 104.38 5.56592 105.492 5.56592C106.603 5.56592 107.701 5.81459 108.704 6.29371H108.686ZM109.017 13.8048V11.6334C109.017 10.3691 108.705 9.41409 108.079 8.76826C107.454 8.12242 106.58 7.79951 105.458 7.79951C104.338 7.79951 103.464 8.12242 102.837 8.76826C102.21 9.41409 101.901 10.3691 101.91 11.6334V13.8048H109.017Z" fill="white"/>
<path d="M115.511 19.1339C115.356 18.9831 115.234 18.8018 115.153 18.6013C115.072 18.401 115.034 18.1859 115.04 17.9698C115.032 17.7537 115.067 17.538 115.144 17.3358C115.22 17.1336 115.337 16.949 115.487 16.793C115.637 16.637 115.817 16.5129 116.016 16.428C116.215 16.3433 116.429 16.2996 116.645 16.2996C116.861 16.2996 117.076 16.3433 117.275 16.428C117.474 16.5129 117.653 16.637 117.803 16.793C117.953 16.949 118.07 17.1336 118.147 17.3358C118.223 17.538 118.258 17.7537 118.25 17.9698C118.253 18.2884 118.161 18.6005 117.986 18.8669C117.812 19.1332 117.562 19.3419 117.269 19.4664C116.976 19.591 116.652 19.6259 116.339 19.5667C116.026 19.5076 115.738 19.3569 115.511 19.1339Z" fill="white"/>
<path d="M55.258 26.3494C55.6948 26.7862 55.9133 27.4209 55.9133 28.2534V31.63H54.847V28.3666C54.8818 27.9012 54.7343 27.4405 54.4358 27.0818C54.281 26.9309 54.0963 26.8142 53.8934 26.7395C53.6907 26.6647 53.4745 26.6333 53.2588 26.6474C53.0084 26.6351 52.7579 26.6742 52.5232 26.7626C52.2885 26.8511 52.0745 26.9867 51.8944 27.1614C51.7183 27.3572 51.5832 27.5864 51.4971 27.8353C51.4111 28.0842 51.3758 28.3479 51.3933 28.6107V31.63H50.327V25.7455H51.3547V26.6346C51.5751 26.3257 51.8766 26.0838 52.2259 25.9356C52.6196 25.7635 53.0451 25.676 53.4747 25.6787C53.8019 25.664 54.1286 25.7159 54.4352 25.8312C54.7417 25.9465 55.0217 26.1227 55.258 26.3494Z" fill="white"/>
<path d="M66.9985 29.0605H62.2267C62.2519 29.3033 62.3251 29.5387 62.442 29.7532C62.559 29.9676 62.7172 30.1566 62.9077 30.3093C63.3207 30.6311 63.8337 30.7976 64.357 30.7796C64.6746 30.7923 64.9913 30.7353 65.2847 30.6128C65.578 30.4904 65.8412 30.3052 66.0554 30.0704L66.6439 30.759C66.3742 31.0719 66.0332 31.3152 65.6494 31.4683C65.228 31.6366 64.7773 31.7197 64.3235 31.7124C63.7487 31.724 63.18 31.5925 62.6687 31.3294C62.2011 31.0878 61.8137 30.7156 61.5534 30.2579C61.3011 29.7832 61.1691 29.2538 61.1691 28.7161C61.1691 28.1785 61.3011 27.6491 61.5534 27.1744C61.7973 26.7256 62.1624 26.3543 62.6071 26.1028C63.07 25.8444 63.593 25.7124 64.1231 25.7199C64.6494 25.711 65.1685 25.8432 65.6264 26.1028C66.0638 26.3552 66.4202 26.7268 66.6542 27.1744C66.9095 27.6594 67.0378 28.2014 67.0268 28.7496C67.0228 28.8537 67.0134 28.9574 66.9985 29.0605ZM62.8306 27.0716C62.4833 27.3893 62.2679 27.8258 62.2267 28.2947H66.0015C65.9559 27.8287 65.74 27.3959 65.3951 27.0793C65.0361 26.7748 64.5808 26.6078 64.1102 26.6078C63.6397 26.6078 63.1844 26.7748 62.8254 27.0793L62.8306 27.0716Z" fill="white"/>
<path d="M75.581 31.2934C75.4123 31.4356 75.2152 31.5399 75.0028 31.5993C74.7732 31.6705 74.534 31.706 74.2936 31.7046C74.0438 31.7204 73.7933 31.6862 73.5569 31.6042C73.3204 31.522 73.1026 31.3938 72.9163 31.2267C72.7456 31.045 72.6142 30.83 72.5302 30.5952C72.4462 30.3605 72.4115 30.111 72.4281 29.8622V26.6322H71.4284V25.7533H72.4281V24.4685H73.4944V25.7533H75.1852V26.6322H73.497V29.8313C73.4788 30.0972 73.5644 30.3598 73.7359 30.5637C73.8249 30.6523 73.9315 30.721 74.0489 30.7653C74.1663 30.8096 74.2917 30.8285 74.417 30.8207C74.7184 30.8287 75.0131 30.7305 75.2495 30.5432L75.581 31.2934Z" fill="white"/>
<path d="M89.4367 25.7533L87.2397 31.6301H86.2118L84.5133 27.1691L82.7967 31.6301H81.769L79.5822 25.7456H80.592L82.3009 30.4325L84.079 25.7456H84.9784L86.7206 30.4531L88.4731 25.7456L89.4367 25.7533Z" fill="white"/>
<path d="M95.0642 31.3168C94.6086 31.0668 94.2307 30.6961 93.9721 30.2453C93.7126 29.7706 93.5766 29.2381 93.5766 28.697C93.5766 28.156 93.7126 27.6236 93.9721 27.1488C94.2293 26.6983 94.6077 26.3289 95.0642 26.0824C95.5492 25.8231 96.0921 25.6914 96.642 25.6996C97.1894 25.691 97.73 25.8229 98.212 26.0824C98.6667 26.3304 99.0439 26.6996 99.3015 27.1488C99.5595 27.6241 99.6946 28.1563 99.6946 28.697C99.6946 29.2378 99.5595 29.77 99.3015 30.2453C99.0426 30.6949 98.6659 31.0654 98.212 31.3168C97.7313 31.5803 97.1901 31.7141 96.642 31.7048C96.0914 31.7137 95.5479 31.5801 95.0642 31.3168ZM97.657 30.5126C97.956 30.3387 98.2006 30.0851 98.3637 29.7802C98.531 29.4436 98.618 29.0729 98.618 28.697C98.618 28.3213 98.531 27.9506 98.3637 27.614C98.2019 27.3094 97.9568 27.0571 97.657 26.8868C97.3447 26.7198 96.9961 26.6326 96.642 26.6326C96.2879 26.6326 95.9393 26.7198 95.627 26.8868C95.3263 27.0576 95.0797 27.3096 94.9152 27.614C94.7446 27.9495 94.6557 28.3207 94.6557 28.697C94.6557 29.0735 94.7446 29.4446 94.9152 29.7802C95.081 30.0848 95.3272 30.3382 95.627 30.5126C95.9383 30.6828 96.2873 30.772 96.642 30.772C96.9967 30.772 97.3458 30.6828 97.657 30.5126Z" fill="white"/>
<path d="M106.792 25.977C107.206 25.7905 107.659 25.7025 108.113 25.7199V26.7478C108.027 26.7379 107.942 26.7337 107.856 26.735C107.606 26.7213 107.356 26.7601 107.122 26.8485C106.888 26.9371 106.675 27.0735 106.496 27.2489C106.143 27.655 105.965 28.1843 106 28.7213V31.6302H104.937V25.7457H105.965V26.7478C106.152 26.4097 106.441 26.1398 106.792 25.977Z" fill="white"/>
<path d="M115.482 28.896L114.262 30.0292V31.63H113.195V23.4072H114.262V28.6904L117.469 25.7585H118.754L116.279 28.1919L119 31.63H117.692L115.482 28.896Z" fill="white"/>
<path d="M35.1197 25.6248L35.0683 25.5812C34.9653 25.2259 34.8047 24.89 34.5929 24.5867L34.1484 24.0522C34.1249 23.8893 34.0914 23.728 34.0481 23.5692L33.4391 22.346L33.0897 20.1773L33.4827 18.0085L34.0327 16.96V16.9292C34.0893 16.7367 34.1306 16.5399 34.156 16.3408L34.58 15.85C34.8159 15.5266 34.9902 15.1625 35.0939 14.7759L35.1403 14.7399C35.7586 14.2287 36.1774 13.5162 36.3233 12.7274C36.4693 11.9385 36.333 11.1233 35.9384 10.4248C35.5438 9.72622 34.9159 9.18877 34.165 8.90656C33.4139 8.62433 32.5876 8.61533 31.8305 8.88113H31.8151C31.4096 8.75651 30.9839 8.7103 30.5611 8.74494L29.9726 8.84772C29.7716 8.75431 29.5626 8.67865 29.3483 8.62159L28.1713 8.54965L28.1431 8.52909L26.0874 7.74021L24.376 6.28837L23.6463 5.1346L23.6129 5.09349C23.4976 4.97029 23.3739 4.85523 23.2429 4.74916L23.0218 4.09647V4.07078C22.8676 3.72602 22.6574 3.40911 22.3999 3.13286L22.3845 3.04806C22.2423 2.20172 21.8065 1.43249 21.1539 0.875204C20.5012 0.31791 19.6732 0.00813396 18.8151 0.000157494C17.9569 -0.00780721 17.1232 0.286546 16.4604 0.831616C15.7975 1.3767 15.3476 2.13771 15.1896 2.98125L15.1664 3.09431C14.9119 3.35811 14.7011 3.66085 14.542 3.99112L14.2851 4.69519C14.1627 4.79212 14.046 4.89593 13.9356 5.00612L13.1184 6.24212L11.4096 7.62458L9.42589 8.33379L9.37964 8.3595L9.35394 8.37748L8.23101 8.42373H8.19503C7.98203 8.47579 7.77396 8.5463 7.57318 8.63445L7.00273 8.52396H6.98988C6.57544 8.48248 6.15691 8.51998 5.75646 8.63445C5.00417 8.35299 4.17679 8.34548 3.41953 8.61325C2.66226 8.88103 2.0235 9.40695 1.61536 10.0987C1.20722 10.7905 1.05577 11.604 1.1876 12.3962C1.31942 13.1886 1.72612 13.9092 2.33627 14.4315L2.35683 14.4469C2.45397 14.8459 2.6229 15.2238 2.85534 15.5621L3.23821 16.0195C3.25893 16.2298 3.29761 16.4378 3.35384 16.6414L3.86777 17.6847V17.7233L4.2121 19.8586L3.82409 21.994L3.17912 23.2274L3.15855 23.2788C3.11439 23.4254 3.08004 23.5747 3.05577 23.7259L2.58809 24.2629L2.57012 24.2861C2.35852 24.5779 2.19459 24.9014 2.08444 25.2446L2.00222 25.3139C1.33609 25.8595 0.884045 26.6228 0.72581 27.4693C0.567575 28.3156 0.713328 29.1907 1.13735 29.9401C1.56137 30.6895 2.23642 31.2652 3.04343 31.5654C3.85044 31.8656 4.73756 31.8713 5.54831 31.5813L5.59971 31.5607C5.97204 31.6559 6.35754 31.6888 6.74063 31.6583L7.42158 31.5401C7.58837 31.6088 7.76018 31.6647 7.9355 31.7072L9.31283 31.7946L11.3994 32.5962L13.0773 34.0173L13.1236 34.0455L13.7557 35.04L13.7763 35.0656C13.9239 35.2232 14.0857 35.3667 14.2593 35.4948L14.4675 36.0961C14.6377 36.4747 14.8784 36.8174 15.1767 37.106V37.1446C15.2942 37.9439 15.6973 38.6736 16.3115 39.1986C16.9257 39.7234 17.7093 40.008 18.5172 39.9994H18.5506C19.3522 40.0146 20.1324 39.7411 20.749 39.2288C21.3656 38.7165 21.7773 37.9995 21.9092 37.2088V37.1394C22.2013 36.8585 22.4399 36.5267 22.6132 36.1603L22.8369 35.5514C23 35.4325 23.1531 35.3001 23.2942 35.1556L23.988 34.1124L25.7199 32.7093L27.7937 31.9667L29.0784 31.9127H29.1324C29.3019 31.8719 29.4685 31.8195 29.6309 31.756L30.2682 31.8793H30.2965C30.4143 31.8918 30.5326 31.8978 30.6511 31.8973C30.9106 31.8963 31.1692 31.8662 31.4219 31.8074L31.4631 31.8228C31.8934 31.9895 32.3506 32.0766 32.8121 32.0798C33.4399 32.0706 34.0544 31.898 34.5951 31.5789C35.1358 31.2599 35.584 30.8055 35.8957 30.2605C36.3502 29.5249 36.522 28.6494 36.3792 27.7967C36.2365 26.9441 35.7889 26.1722 35.1197 25.6248ZM33.8837 29.0835C33.3703 30.0107 32.5429 30.7241 31.5504 31.0956L31.0365 30.9029C32.6042 29.5504 33.6803 27.7172 34.097 25.6891L34.5132 26.0438C34.6769 27.0998 34.4533 28.1794 33.8837 29.0835ZM23.7285 33.7603C23.6385 33.8014 23.5434 33.8426 23.4432 33.8811L23.6873 33.2207L24.1627 33.1693L23.821 33.6833L23.7285 33.7603ZM22.6184 35.2455C22.4863 35.3388 22.349 35.4246 22.2072 35.5026L22.3614 34.67C22.5387 34.6262 22.7109 34.5826 22.8753 34.5338L22.6184 35.2455ZM21.7062 36.9055C20.8147 37.6516 19.6877 38.0576 18.5252 38.0516C17.3629 38.0455 16.2402 37.6276 15.3566 36.8721L15.223 36.0627C16.2637 36.4979 17.3816 36.7181 18.5096 36.7102H18.6046C19.7178 36.7275 20.8231 36.5213 21.8552 36.1039L21.7062 36.9055ZM18.5122 36.3376C17.3503 36.3454 16.201 36.0971 15.1459 35.6105L14.9917 34.6854C16.2073 34.9489 17.4482 35.0781 18.692 35.0708C19.8397 35.0779 20.985 34.966 22.1096 34.7368L21.94 35.6515C20.8625 36.1321 19.6916 36.3665 18.5122 36.3376ZM14.2105 34.4773C14.3802 34.5312 14.5575 34.58 14.7399 34.6238L14.8812 35.4692C14.7346 35.3851 14.593 35.2924 14.4572 35.1916L14.2105 34.4773ZM13.2778 33.6241L12.9283 33.0716L13.4217 33.1333L13.6555 33.8092C13.5399 33.7629 13.4269 33.7141 13.3215 33.6627L13.2778 33.6241ZM3.1894 28.8035C2.63119 27.8789 2.43013 26.7824 2.62407 25.7199L3.05834 25.3627C3.23267 26.394 3.59129 27.3854 4.11703 28.2895C4.60906 29.1789 5.24956 29.9776 6.01084 30.6511L5.46866 30.8412C4.49223 30.4522 3.68487 29.7305 3.1894 28.8035ZM4.30719 17.7129C4.30719 17.6025 4.33288 17.4868 4.35087 17.3686L4.78514 17.8826C4.71833 18.0265 4.65408 18.1704 4.59241 18.3116L4.31489 17.7541L4.30719 17.7129ZM3.6031 15.9991C3.587 15.8368 3.58014 15.6738 3.58255 15.5108L4.2044 16.0427C4.153 16.2122 4.10419 16.3819 4.06307 16.5566L3.6031 15.9991ZM3.26392 11.073C3.82364 10.0562 4.75136 9.2921 5.85668 8.93766L6.59158 9.21261C4.80337 10.6268 3.61122 12.6608 3.25106 14.9121L2.65748 14.3981C2.42337 13.2531 2.64064 12.0618 3.26392 11.073ZM4.71576 11.9211C5.28967 10.9122 6.07937 10.0426 7.02842 9.3745L7.8764 9.69057C6.28015 11.464 5.05675 13.5404 4.27891 15.796L3.5954 15.2101C3.71828 14.0414 4.10109 12.9149 4.71576 11.9133V11.9211ZM8.42887 9.12525C8.30296 9.24345 8.17191 9.3822 8.046 9.50298L7.27511 9.21518C7.41987 9.13086 7.56913 9.05451 7.72222 8.98648L8.42887 9.12525ZM9.59805 8.74751L10.2507 8.72181L9.95781 9.10726L9.282 8.97878C9.38735 8.89654 9.4927 8.81946 9.59549 8.75007L9.59805 8.74751ZM27.9222 8.92224C28.0274 8.99419 28.1329 9.07643 28.2382 9.16379L27.5392 9.28457C27.439 9.1458 27.3413 9.00961 27.2437 8.87856L27.9144 8.91967L27.9222 8.92224ZM29.8211 9.19719C29.9765 9.27426 30.1276 9.36005 30.2733 9.45415L29.4742 9.73681C29.3457 9.59806 29.2172 9.46444 29.0887 9.33852L29.8211 9.19719ZM34.2537 11.366C34.8657 12.3728 35.0611 13.5785 34.7985 14.7271L34.1817 15.2409C33.8699 12.9769 32.7178 10.913 30.9543 9.4593L31.7252 9.20233C32.8103 9.57545 33.7137 10.3458 34.2537 11.3583V11.366ZM33.3158 16.8649C33.2798 16.7005 33.2361 16.5309 33.1899 16.3511L33.8297 15.8372C33.8279 15.9978 33.8169 16.1582 33.7963 16.3176L33.3158 16.8649ZM33.0434 17.9751L33.0229 18.0907L32.7427 18.6226C32.6861 18.4839 32.6271 18.34 32.5629 18.1935L33.0125 17.6795C33.0245 17.7789 33.0349 17.8774 33.0434 17.9751ZM25.6557 31.4811C25.7302 31.332 25.8047 31.1803 25.8818 31.0288L26.7066 31.1855L26.5063 31.4425L25.6557 31.4811ZM24.4813 32.6194C24.2886 32.6451 24.0882 32.6682 23.8852 32.6888L24.1422 31.9899L24.9131 32.0489L24.5507 32.5962L24.4813 32.6194ZM14.6705 32.7427L14.524 31.8691C14.5252 31.8511 14.5252 31.8331 14.524 31.8151C17.1271 31.7354 20.0616 31.7638 22.6518 31.8973V31.9436L22.4899 32.8095C19.8842 32.9656 17.2707 32.9433 14.6679 32.7427H14.6705ZM22.3794 33.326L22.2046 34.2614C19.7998 34.7571 17.3174 34.7395 14.9198 34.21L14.763 33.2618C16.1172 33.3672 17.6204 33.4212 19.1031 33.4212C20.2286 33.4288 21.3438 33.3878 22.3717 33.326H22.3794ZM12.5737 32.5038L12.2062 31.9256C12.4632 31.9076 12.7202 31.8922 12.9951 31.8793L13.252 32.5988C13.0233 32.568 12.7998 32.5398 12.5865 32.5063L12.5737 32.5038ZM10.6002 31.296L10.3946 31.0211L11.2015 30.8823H11.2426C11.3223 31.0442 11.3968 31.2035 11.4713 31.3602L10.6002 31.296ZM9.19976 10.1788C7.7755 12.2672 6.488 14.4456 5.34531 16.7005L4.64381 16.1018C5.41768 13.7845 6.66955 11.6554 8.31838 9.85245L9.19976 10.1788ZM9.69056 10.3638L10.5385 10.6799C9.31797 12.9566 7.83787 15.4645 6.42714 17.6179L5.74361 17.0346C6.90336 14.7239 8.2195 12.4952 9.68285 10.3638H9.69056ZM11.5844 8.65757C11.4739 8.88113 11.3583 9.11239 11.2375 9.34624L10.5206 9.20747C10.6593 9.02503 10.7929 8.8503 10.9266 8.69354L11.5844 8.65757ZM25.0492 8.41603L24.5225 8.44943C24.5097 8.41088 24.4967 8.37234 24.4865 8.33637L24.2424 7.62714L24.579 7.67597L25.0492 8.41603ZM26.5911 8.82973C26.722 9.0019 26.848 9.18434 26.9945 9.3745L26.2518 9.50298C26.1337 9.24601 26.0206 9.02246 25.91 8.78863L26.5911 8.82973ZM31.63 17.3378L30.926 17.9185C29.5642 15.7266 28.1225 13.1801 26.9379 10.87L27.8013 10.5591C29.2258 12.7294 30.5007 14.9942 31.6172 17.3378H31.63ZM28.3076 10.3844L29.207 10.0657C30.8224 11.9081 32.0324 14.0698 32.7581 16.4101L32.0156 17.0038C30.9204 14.7188 29.6774 12.5076 28.2947 10.3844H28.3076ZM32.419 19.1699V19.2316L32.126 19.8098C31.9898 19.6068 31.8537 19.3986 31.7123 19.1828L32.1903 18.6329C32.2707 18.8145 32.3453 18.9935 32.4138 19.1699H32.419ZM32.7659 23.6076L32.1414 23.0706C32.1851 22.9833 32.2289 22.8908 32.2699 22.8136L32.807 23.4561C32.7864 23.4998 32.7864 23.5538 32.7607 23.6076H32.7659ZM33.2104 23.9289L33.3749 24.1267L33.1976 23.9752C33.1976 23.9598 33.2001 23.9444 33.2053 23.9212L33.2104 23.9289ZM28.2151 29.8391C29.5359 27.8755 30.7373 25.8341 31.8125 23.7259L32.5294 24.358C31.7752 26.5026 30.613 28.4807 29.1067 30.1834L28.2151 29.8391ZM24.3298 31.4168C24.4043 31.1881 24.4813 30.9594 24.5636 30.7281C24.8849 30.7923 25.1983 30.8618 25.5092 30.9363C25.4142 31.1239 25.3242 31.3089 25.2343 31.4913L24.3298 31.4168ZM23.0038 31.332C23.0654 31.0494 23.1323 30.7667 23.2043 30.4892C23.5589 30.5432 23.9109 30.6022 24.2604 30.6691C24.1756 30.9106 24.0933 31.1547 24.0034 31.3962C23.6797 31.3732 23.343 31.3552 22.9987 31.3372L23.0038 31.332ZM13.1339 31.2858C13.0593 31.0288 12.9797 30.7899 12.8949 30.5406C13.2546 30.4814 13.617 30.4301 13.9818 30.3838C14.0486 30.6691 14.1103 30.9542 14.1669 31.2421L13.1339 31.2858ZM11.8902 31.3628C11.8028 31.1727 11.7129 30.9826 11.6178 30.7873C11.9364 30.7179 12.2628 30.6536 12.5917 30.5971C12.6713 30.8335 12.7484 31.0699 12.8204 31.3038C12.4863 31.3268 12.1857 31.3448 11.885 31.3732L11.8902 31.3628ZM11.0525 29.6412C11.4097 29.5229 11.7668 29.4151 12.1291 29.3174C12.2139 29.5385 12.2962 29.7594 12.3861 29.9778C12.0315 30.0421 11.682 30.114 11.3377 30.1886L11.0525 29.6412ZM5.75646 23.1504L6.55047 22.4951L6.58644 22.4642C7.87127 24.5507 9.22803 26.9354 10.3587 29.1299L10.3073 29.1453L9.32824 29.4921C8.00493 27.4558 6.81195 25.3375 5.75646 23.1504ZM8.88884 29.6361L7.95349 29.9649C6.4771 28.228 5.35218 26.2208 4.64123 24.0548L5.3967 23.4329C6.43331 25.5699 7.59954 27.6414 8.88884 29.6361ZM22.3665 7.44213L22.5284 8.40832C22.5284 8.44943 22.5439 8.48798 22.5516 8.52909C20.0796 8.60104 17.3276 8.57278 14.8658 8.452L14.889 8.33637L15.0687 7.3779C17.5037 7.24472 19.9446 7.26618 22.3769 7.44213H22.3665ZM15.151 6.92821L15.3335 5.94918C17.5799 5.52419 19.8878 5.54165 22.1276 6.00057L22.292 6.98731C19.9185 6.82333 17.5371 6.80531 15.1613 6.93334L15.151 6.92821ZM25.2445 8.7732C25.3705 9.04815 25.5016 9.33081 25.6454 9.61861C25.4064 9.67 25.1674 9.71626 24.9233 9.76251C24.8129 9.44388 24.71 9.12781 24.615 8.81174L25.2445 8.7732ZM30.4738 18.2988C30.2553 18.4889 30.0394 18.6818 29.8287 18.8795C28.0776 16.5502 26.6304 14.0072 25.522 11.312C25.8073 11.2323 26.0899 11.145 26.3726 11.055C27.583 13.4371 29.0605 16.0427 30.4738 18.2988ZM31.8099 20.3546C31.6969 20.5165 31.5812 20.6809 31.4657 20.8505C31.2524 20.6192 31.0417 20.3776 30.8334 20.1335C30.9929 19.9536 31.1522 19.7789 31.314 19.6068C31.4759 19.8664 31.6404 20.1155 31.8049 20.3571L31.8099 20.3546ZM26.4292 29.1812C26.0643 29.0502 25.6969 28.9242 25.3267 28.8138C26.4404 26.2861 27.8526 23.9008 29.5332 21.7087C29.8073 21.976 30.0892 22.2329 30.3786 22.4796C29.0245 24.5867 27.6086 26.9842 26.424 29.1838L26.4292 29.1812ZM14.082 8.78092C14.005 9.1458 13.9202 9.50812 13.8251 9.86787C13.599 9.8319 13.3755 9.79592 13.1544 9.7548C13.2778 9.41818 13.3909 9.08157 13.4987 8.74494L14.082 8.78092ZM28.9474 20.0873C29.1298 19.8946 29.3123 19.7045 29.4999 19.5194C29.7311 19.8175 29.9658 20.1087 30.2039 20.3931C30.0524 20.5704 29.9059 20.7528 29.7569 20.9353C29.4742 20.6552 29.2044 20.3751 28.9319 20.0847L28.9474 20.0873ZM28.788 19.9074C26.6751 17.5162 25.0739 14.7179 24.0831 11.6846C24.3554 11.6255 24.6252 11.5638 24.8951 11.4944C26.0365 14.2885 27.5351 16.9228 29.3534 19.3319C29.1556 19.5142 28.9705 19.7095 28.783 19.9048L28.788 19.9074ZM28.3024 20.4368C26.2354 22.7476 24.639 25.4394 23.6025 28.3615C20.3193 27.6219 16.9174 27.5799 13.617 28.2382C12.6199 25.2702 11.0482 22.5278 8.99162 20.1669C11.2281 17.7206 12.9357 14.8391 14.0076 11.7026C17.0904 12.3596 20.2729 12.3998 23.3713 11.8208C24.3977 15.0027 26.0753 17.936 28.2973 20.4342L28.3024 20.4368ZM24.0085 11.443C23.8852 11.055 23.7722 10.6722 23.6693 10.2739C23.9126 10.2413 24.1542 10.2053 24.394 10.1659C24.5225 10.5283 24.651 10.8932 24.8051 11.2555C24.5353 11.33 24.268 11.3917 24.0034 11.4508L24.0085 11.443ZM23.3019 11.5818C20.255 12.1475 17.1266 12.1082 14.0949 11.4662C14.2251 11.0705 14.3459 10.6696 14.4572 10.2636C17.276 10.6442 20.1309 10.677 22.9576 10.3612C23.0578 10.7801 23.1709 11.1861 23.2967 11.587L23.3019 11.5818ZM14.542 9.97322C14.6423 9.59292 14.7296 9.20233 14.8118 8.82203C17.3172 8.94794 20.1284 8.9762 22.644 8.90168C22.7186 9.29227 22.8009 9.67258 22.9011 10.0683C20.1212 10.3765 17.3142 10.3446 14.542 9.97322ZM13.7557 10.1685C13.6478 10.554 13.5296 10.9394 13.4037 11.3146C13.1467 11.2529 12.8898 11.1887 12.6327 11.1167C12.7818 10.7621 12.9232 10.4049 13.0542 10.0503L13.7557 10.1685ZM13.324 11.5407C12.2892 14.5342 10.657 17.2862 8.52651 19.6299C8.34664 19.432 8.16421 19.2393 7.97662 19.0492C9.82024 16.6846 11.3539 14.0939 12.5403 11.3403C12.787 11.4096 13.0491 11.4765 13.3112 11.5407H13.324ZM8.35436 19.8098C8.08711 20.0975 7.81216 20.3794 7.5295 20.6552C7.3856 20.4701 7.23913 20.2878 7.09523 20.1105C7.33677 19.8278 7.57747 19.5382 7.8173 19.2419C7.99974 19.4244 8.17705 19.6145 8.35436 19.8098ZM8.8323 20.3442C10.8505 22.6709 12.3939 25.3701 13.3755 28.2895C12.9643 28.3769 12.5557 28.4746 12.1497 28.5825C11.0573 25.9714 9.65164 23.5028 7.96377 21.2308C8.26184 20.9379 8.55136 20.6415 8.8323 20.3416V20.3442ZM13.599 28.9654C13.676 29.2309 13.7506 29.4955 13.8225 29.7594C13.4345 29.8108 13.0517 29.8673 12.6765 29.9315C12.5943 29.7028 12.5095 29.4716 12.4195 29.2403C12.81 29.1375 13.2032 29.0451 13.599 28.9628V28.9654ZM13.8329 28.9216C16.9851 28.3067 20.2302 28.3469 23.3662 29.0399C23.2813 29.2968 23.2017 29.5667 23.1246 29.8339C20.1209 29.4066 17.0742 29.3721 14.0615 29.7312C13.9896 29.4587 13.9125 29.1889 13.8329 28.9192V28.9216ZM23.5974 29.0913C23.9803 29.1812 24.3683 29.2814 24.7434 29.392C24.651 29.6155 24.561 29.8391 24.4865 30.0626C24.1191 29.9907 23.749 29.9265 23.3713 29.8673C23.438 29.6052 23.5152 29.3456 23.6 29.0887L23.5974 29.0913ZM23.8287 28.4155C24.8518 25.5405 26.4225 22.8912 28.454 20.6141C28.729 20.9173 29.0117 21.2102 29.302 21.498C27.5897 23.7285 26.1523 26.1572 25.021 28.7315C24.6304 28.6133 24.2322 28.5054 23.8312 28.4129L23.8287 28.4155ZM29.9598 21.1486C30.1037 20.9713 30.2451 20.7991 30.389 20.6346C30.6151 20.8916 30.8464 21.1486 31.0776 21.4055L30.7564 21.8886C30.4969 21.6471 30.2297 21.4004 29.9598 21.1486ZM31.332 21.6985L31.9436 22.4308C31.8897 22.5439 31.8331 22.6595 31.7791 22.7752L31.0725 22.1713L31.0391 22.1405C31.147 21.9914 31.2446 21.8424 31.3423 21.6985H31.332ZM30.6203 19.8998C30.3942 19.6427 30.1731 19.3549 29.9572 19.0698C30.1629 18.8771 30.3736 18.6894 30.5869 18.5044C30.7684 18.7922 30.9483 19.0724 31.1264 19.3447C30.9671 19.5272 30.7976 19.7095 30.6305 19.8998H30.6203ZM25.4167 11.091C25.2779 10.7467 25.1469 10.4024 25.0236 10.0632C25.2805 10.0143 25.5374 9.96294 25.7945 9.90898C25.9434 10.2156 26.0977 10.5266 26.257 10.8418C25.982 10.9266 25.7045 11.0114 25.427 11.091H25.4167ZM24.2784 9.88072L23.5846 9.98351C23.4946 9.61605 23.415 9.24859 23.343 8.87599L23.952 8.85286C24.0625 9.19206 24.173 9.53125 24.2886 9.88072H24.2784ZM23.2787 8.50339C23.2787 8.43145 23.2479 8.3595 23.2377 8.28754L23.1066 7.50124L23.5178 7.54236L23.8416 8.48027L23.2787 8.50339ZM14.1925 8.20274C14.1797 8.27213 14.1643 8.34151 14.1489 8.41088L13.6092 8.38005L13.9459 7.45756L14.3365 7.42672L14.1925 8.20274ZM12.9771 8.22587V8.2413C12.9771 8.27213 12.9565 8.30297 12.9489 8.33123L12.435 8.29011L12.9129 7.56805L13.229 7.53207L12.9771 8.22587ZM12.8256 8.69868C12.7253 9.00704 12.6173 9.31797 12.5043 9.6289C12.2705 9.58007 12.0392 9.52867 11.8079 9.47472C11.9493 9.19205 12.088 8.91711 12.2191 8.6473L12.8256 8.69868ZM11.6666 9.7548C11.9082 9.81133 12.1523 9.86787 12.399 9.91926C12.273 10.2559 12.142 10.5899 11.9955 10.9266C11.7257 10.8443 11.4585 10.7544 11.1938 10.6696L11.6666 9.7548ZM11.0782 10.8752C11.3505 10.9702 11.6255 11.0627 11.9004 11.1475C10.7511 13.8072 9.27044 16.3109 7.49353 18.5995C7.28796 18.4016 7.07724 18.2089 6.86396 18.0187C8.31581 15.7908 9.83189 13.2238 11.0833 10.8777L11.0782 10.8752ZM6.73805 18.2166C6.9462 18.4016 7.15176 18.5918 7.3522 18.7845C7.12863 19.0646 6.90251 19.3395 6.67124 19.6093C6.50936 19.4192 6.3449 19.2367 6.18044 19.0544C6.36546 18.7819 6.55047 18.5044 6.73805 18.2166ZM6.00314 19.3164C6.15988 19.4886 6.31407 19.6633 6.46824 19.8304C6.25582 20.0736 6.03997 20.3126 5.82069 20.5473C5.70763 20.3751 5.59714 20.2132 5.48921 20.0513C5.65881 19.8098 5.83097 19.5708 6.00314 19.3164ZM6.88967 20.3442C7.031 20.5165 7.16718 20.6912 7.30337 20.8582C7.04641 21.1152 6.76889 21.3541 6.4888 21.5931L6.18301 21.11C6.41942 20.8633 6.65583 20.6064 6.88967 20.3392V20.3442ZM6.20357 21.8501L6.09822 21.94L5.44553 22.4796L5.29135 22.1225L5.92348 21.3927L6.20357 21.8501ZM6.87168 22.2149C7.16975 21.958 7.45755 21.7011 7.74021 21.4441C9.39652 23.6775 10.777 26.1028 11.8516 28.6673C11.4713 28.7735 11.0936 28.8892 10.7184 29.0142C9.56722 26.7684 8.18732 24.3324 6.87168 22.2098V22.2149ZM14.2157 30.3659C17.1203 30.0272 20.0563 30.0608 22.9524 30.466C22.8805 30.7521 22.8137 31.0399 22.752 31.3294C21.092 31.2395 19.3036 31.1933 17.5407 31.1933C16.4692 31.1933 15.4105 31.2113 14.3956 31.2447C14.3467 30.944 14.2851 30.6536 14.2157 30.3607V30.3659ZM24.7846 30.1268C24.8669 29.9111 24.9516 29.6978 25.0416 29.4819C25.3936 29.5873 25.7405 29.7028 26.0874 29.8236L25.8073 30.3453C25.4706 30.2656 25.1314 30.1911 24.7846 30.1218V30.1268ZM26.442 29.9495L26.4883 29.9649L27.3619 30.2939C27.2849 30.4018 27.2078 30.5123 27.1306 30.6176L26.1876 30.4352C26.2698 30.2707 26.3624 30.1063 26.442 29.9445V29.9495ZM26.7812 29.3122C27.9452 27.1538 29.3329 24.8078 30.6562 22.7494L31.4631 23.4407C30.3696 25.5993 29.1405 27.6866 27.7833 29.69L26.7812 29.3122ZM32.2469 21.7807L31.7174 21.146L31.995 20.7426L32.3701 21.4954C32.3325 21.588 32.2913 21.6813 32.2469 21.7755V21.7807ZM32.6297 22.0145L32.9072 22.5721L32.5629 22.1609L32.6297 22.0145ZM31.5402 18.9104C31.3757 18.6534 31.2086 18.3965 31.0417 18.1395L31.7149 17.5845C31.8331 17.8414 31.9462 18.0984 32.0516 18.3348L31.5402 18.9104ZM26.8274 10.6542H26.8146C26.6656 10.3612 26.5191 10.0734 26.3778 9.78821L27.177 9.64945C27.3389 9.87558 27.5007 10.1094 27.6651 10.3561L26.8274 10.6542ZM24.0727 7.16718L23.8698 6.5736L24.2604 7.19031L24.0727 7.16718ZM23.045 7.05926L22.8933 6.19072L23.0784 6.24983L23.3636 7.07725C23.2557 7.07211 23.1452 7.06183 23.0346 7.05412L23.045 7.05926ZM22.8111 5.64596L22.7494 5.28364L22.8831 5.66652L22.8111 5.64596ZM15.4439 5.41984L15.5982 4.59241C17.6291 3.80109 19.8855 3.81487 21.9066 4.63096L22.0453 5.46866C19.8665 5.04785 17.6289 5.03131 15.4439 5.41984ZM14.5831 6.1496L14.4264 6.98731L14.1206 7.01044L14.4186 6.19843L14.5831 6.1496ZM14.6345 5.60485L14.7347 5.34789L14.6859 5.60485H14.6345ZM13.2418 7.09524L13.599 6.55304L13.4089 7.06697L13.2418 7.09524ZM11.0859 9.6366C10.9445 9.91155 10.7955 10.1942 10.6439 10.4769L9.82162 10.1685C9.98864 9.93211 10.1505 9.70598 10.3124 9.48757L11.0859 9.6366ZM6.30122 17.8364C6.12648 18.0933 5.95688 18.3502 5.78729 18.6072L5.29135 18.0111C5.40184 17.7695 5.51748 17.5228 5.64338 17.2685L6.30122 17.8364ZM5.60742 18.8641C5.46351 19.0774 5.32219 19.2855 5.18086 19.4886L4.89306 18.9053C4.97015 18.7151 5.05581 18.5173 5.15002 18.3116L5.60742 18.8641ZM5.29135 20.4316C5.38129 20.5653 5.47122 20.6886 5.54831 20.8376L5.51234 20.8761L4.99841 21.4672C4.95729 21.3721 4.91875 21.2771 4.88278 21.1846L5.29135 20.4316ZM4.68749 21.8398L4.35087 22.2278L4.63095 21.6985L4.68749 21.8398ZM5.09863 22.7648L4.45364 23.2942C4.4408 23.2402 4.43053 23.1888 4.42024 23.1374L4.97528 22.4951C5.00869 22.5849 5.05237 22.6749 5.09349 22.7648H5.09863ZM4.00654 23.6642L3.84979 23.7953L3.99626 23.6256C4.00088 23.6382 4.00431 23.6511 4.00654 23.6642ZM4.22239 24.412C4.9352 26.5088 6.02649 28.4572 7.44214 30.1602L6.65069 30.4378C4.9657 29.0614 3.87004 27.0934 3.58768 24.9362L4.22239 24.412ZM8.49311 30.5458L9.30255 30.2579L9.49012 30.5328L8.63701 30.6819L8.49311 30.5458ZM8.01772 30.7899L7.60402 30.8592L7.97148 30.7307L8.01772 30.7899ZM9.73682 30.0884L10.5463 29.8031C10.5925 29.7851 10.6413 29.7722 10.6876 29.7568C10.7749 29.9265 10.8597 30.096 10.9445 30.2707L9.97322 30.4403L9.73682 30.0884ZM13.306 31.8536L14.2723 31.8151L14.2877 31.8999L14.4238 32.7145C14.1309 32.6888 13.8483 32.658 13.5733 32.6271L13.306 31.8536ZM22.8625 31.9795C22.8625 31.9539 22.8753 31.9281 22.8805 31.9025C23.1991 31.9179 23.5126 31.9385 23.821 31.9591L23.5358 32.7222C23.2787 32.7479 22.991 32.7711 22.7058 32.7915L22.8625 31.9795ZM27.1872 31.2729L27.7627 31.3834L27.0818 31.4116C27.1178 31.3732 27.1512 31.3268 27.1872 31.2806V31.2729ZM27.7911 30.4403L28.5619 30.7333L28.4258 30.8566L27.5984 30.6973L27.7911 30.4403ZM29.1016 30.9312L29.3945 31.0416L29.0553 30.9748L29.1016 30.9312ZM32.956 24.7075L33.5702 25.2214C33.2352 27.366 32.0993 29.3036 30.3916 30.6434L29.6206 30.3555C31.0684 28.6946 32.2005 26.7831 32.9612 24.7152L32.956 24.7075ZM32.5654 20.5961L32.3496 20.1669L32.5166 19.8484L32.6014 20.3828L32.5654 20.5961ZM32.4216 17.8826C32.3256 17.6685 32.2254 17.45 32.1209 17.2273L32.807 16.662C32.8636 16.8727 32.9072 17.0782 32.9457 17.2787L32.4216 17.8826ZM32.7607 12.178C33.3604 13.1976 33.7222 14.3395 33.8194 15.5185L33.1127 16.0992C32.3833 13.8225 31.2036 11.7156 29.6438 9.90384L30.5174 9.59548C31.4466 10.2817 32.2142 11.1632 32.7659 12.178H32.7607ZM29.0142 9.8653L28.1611 10.1788C28.0172 9.96552 27.8758 9.7548 27.7345 9.5518L28.5414 9.41305C28.7007 9.55694 28.86 9.71112 29.0193 9.87558L29.0142 9.8653ZM26.1053 8.42631L25.7071 8.40318L25.4296 7.96634L25.6659 8.05627L26.1053 8.42631ZM21.6985 3.36412L21.7936 3.9423C19.8313 3.25297 17.6949 3.23939 15.724 3.90374L15.8295 3.33329C16.6493 2.6683 17.6804 2.31913 18.7357 2.34912H18.7871C19.8476 2.32907 20.8803 2.68911 21.6985 3.36412ZM12.0366 7.85585L11.7797 8.23872L11.7643 8.26699L11.3865 8.2824L11.8157 7.93293L12.0366 7.85585ZM9.75737 9.36423C9.61604 9.55951 9.47214 9.76251 9.32824 9.96808L8.50082 9.65973C8.65757 9.50041 8.81689 9.35137 8.97621 9.21518L9.75737 9.36423ZM4.57442 16.3433L5.23995 16.9138C5.12946 17.1348 5.02668 17.3532 4.92646 17.5665L4.41254 16.96C4.45879 16.7647 4.51275 16.5618 4.57442 16.3511V16.3433ZM4.78 19.5142L4.94188 19.8406L4.72089 20.2646L4.68493 20.0462L4.78 19.5142ZM9.282 31.2061L9.91669 31.1161L10.0272 31.2729L9.29998 31.2267L9.282 31.2061ZM11.2555 31.9076L11.7694 31.9411L11.9827 32.2751L11.4431 32.0695L11.2555 31.9076ZM13.7711 33.1719L14.524 33.2439L14.6731 34.1483C14.452 34.0893 14.2413 34.0249 14.041 33.9531L13.7711 33.1719ZM22.4642 34.1998L22.6286 33.3106L23.361 33.2541L23.081 34.0249C22.8727 34.0841 22.6672 34.1458 22.4513 34.1998H22.4642ZM25.1418 32.3829L25.3499 32.0721L25.8433 32.0515L25.6634 32.1954L25.1418 32.3829ZM33.4237 17.3429C33.4237 17.3095 33.4109 17.2735 33.4031 17.2375L33.5907 17.0192L33.4237 17.3429ZM34.3667 15.6598L34.2203 15.832V15.5185L34.6597 15.1561C34.5765 15.3347 34.4739 15.5036 34.3539 15.6598H34.3667ZM35.757 10.5385C36.1187 11.1479 36.2607 11.8629 36.1592 12.5644C36.0578 13.2656 35.719 13.9112 35.1993 14.3929C35.3113 13.2972 35.0833 12.1935 34.5464 11.2318C34.0094 10.2701 33.1896 9.49693 32.198 9.01732C32.874 8.83258 33.5926 8.88241 34.2366 9.1587C34.8807 9.43498 35.412 9.92139 35.744 10.5385H35.757ZM30.6177 9.0533C30.8414 9.0349 31.0666 9.04352 31.2884 9.07899L30.7307 9.27428C30.6331 9.20747 30.5354 9.14324 30.4352 9.08413L30.6177 9.0533ZM29.2044 8.98905L28.8164 9.05586L28.7033 8.95821L29.2044 8.98905ZM18.7922 0.709698C19.3447 0.706604 19.8866 0.862087 20.3535 1.15767C20.8203 1.45327 21.1926 1.87658 21.426 2.37739C20.6103 1.94217 19.7012 1.7111 18.7767 1.70393C17.8522 1.69677 16.9396 1.91375 16.1172 2.33627C16.3609 1.83772 16.7424 1.41949 17.2165 1.13118C17.6906 0.842875 18.2374 0.696616 18.7922 0.709698ZM8.82202 8.7732L8.71667 8.86057L8.36463 8.79119L8.82202 8.7732ZM6.66354 8.81688C6.75768 8.81171 6.85204 8.81171 6.9462 8.81688L7.1158 8.8503C7.02071 8.90426 6.92564 8.96336 6.828 9.0276L6.29866 8.82973C6.41989 8.8178 6.54176 8.81351 6.66354 8.81688ZM1.81207 10.2199C2.08289 9.74605 2.47246 9.3509 2.9424 9.07334C3.41234 8.79579 3.94648 8.64541 4.4922 8.63701C4.79036 8.63865 5.08689 8.68101 5.37358 8.76293C4.37906 9.22371 3.54906 9.97737 2.99475 10.923C2.44043 11.8686 2.18828 12.9609 2.27203 14.0538C1.77322 13.5608 1.45619 12.9134 1.37266 12.2172C1.28913 11.5209 1.44402 10.8168 1.81207 10.2199ZM2.79881 14.8324L3.22023 15.1921C3.22023 15.3026 3.20737 15.408 3.20737 15.5159L3.09175 15.3772C2.97366 15.2073 2.87537 15.0246 2.79881 14.8324ZM3.77783 16.6748L3.98083 16.9164L3.95771 17.0346L3.77783 16.6748ZM1.7581 29.5744C1.47841 29.0966 1.34205 28.5485 1.36529 27.9954C1.38853 27.4422 1.57037 26.9075 1.88915 26.4548C1.91442 27.3755 2.16115 28.2766 2.60843 29.0818C3.05573 29.8868 3.69042 30.5723 4.4588 31.0802C3.9122 31.1109 3.36813 30.9858 2.88997 30.7192C2.41182 30.4526 2.01928 30.0555 1.7581 29.5744ZM13.712 34.3025L13.8431 34.3513L13.9664 34.7034L13.712 34.3025ZM14.7399 35.9805L14.6679 35.7698C14.7656 35.8288 14.8658 35.8828 14.9712 35.9342L15.0687 36.5278C14.9373 36.3639 14.8237 36.1865 14.7296 35.9985L14.7399 35.9805ZM18.543 39.7605H18.5122C17.8077 39.7669 17.122 39.5336 16.5677 39.0989C16.0135 38.6641 15.6235 38.0538 15.4619 37.3681C16.3433 38.0235 17.4165 38.3694 18.5146 38.3522H18.5738C19.6637 38.3809 20.7322 38.0465 21.6111 37.4015C21.4439 38.0872 21.0476 38.6953 20.4878 39.1252C19.928 39.5551 19.2383 39.7809 18.5326 39.7655L18.543 39.7605ZM22.3357 36.0396C22.2503 36.2219 22.1452 36.3941 22.0223 36.5535L22.1302 35.9805C22.2278 35.9316 22.3229 35.8828 22.4129 35.8288L22.3357 36.0396ZM23.1477 34.7111L23.2557 34.4207L23.3662 34.3821L23.1477 34.7111ZM35.2867 29.8905C35.0173 30.3645 34.6194 30.7527 34.1387 31.0101C33.6581 31.2674 33.1144 31.3835 32.5706 31.3448C33.3465 30.8559 33.9937 30.1879 34.4578 29.3968C34.922 28.6059 35.1894 27.7151 35.2379 26.7992C35.5385 27.2581 35.7018 27.7933 35.7086 28.3418C35.7154 28.8904 35.5654 29.4294 35.2764 29.8956L35.2867 29.8905Z" fill="url(#paint0_linear_221_863)"/>
</g>
<defs>
<linearGradient id="paint0_linear_221_863" x1="2.13484" y1="15.0699" x2="34.9748" y2="24.8703" gradientUnits="userSpaceOnUse">
<stop stop-color="#5EE6D0"/>
<stop offset="0.51506" stop-color="#BFC6FF"/>
<stop offset="1" stop-color="#FFBA69"/>
</linearGradient>
<clipPath id="clip0_221_863">
<rect width="118.336" height="40" fill="white" transform="translate(0.663574)"/>
</clipPath>
</defs>
</svg>
