<svg width="43" height="48" viewBox="0 0 43 48" fill="none" xmlns="http://www.w3.org/2000/svg">
<path d="M41.3473 30.7498L41.2856 30.6974C41.1621 30.271 40.9694 29.868 40.7151 29.504L40.1818 28.8627C40.1535 28.6671 40.1134 28.4736 40.0615 28.283L39.3306 26.8152L38.9113 24.2127L39.383 21.6102L40.043 20.352V20.315C40.1109 20.084 40.1604 19.8479 40.1909 19.609L40.6997 19.02C40.9828 18.6319 41.1919 18.195 41.3164 17.7311L41.372 17.6879C42.114 17.0744 42.6166 16.2195 42.7917 15.2729C42.9669 14.3262 42.8033 13.348 42.3298 12.5097C41.8563 11.6715 41.1028 11.0265 40.2017 10.6879C39.3004 10.3492 38.3088 10.3384 37.4003 10.6574H37.3818C36.8952 10.5078 36.3844 10.4524 35.877 10.4939L35.1709 10.6173C34.9296 10.5052 34.6789 10.4144 34.4216 10.3459L33.0093 10.2596L32.9754 10.2349L30.5086 9.28825L28.4549 7.54604L27.5792 6.16152L27.5391 6.11218C27.4008 5.96434 27.2524 5.82627 27.0951 5.69899L26.8299 4.91577V4.88493C26.6448 4.47122 26.3926 4.09093 26.0836 3.75943L26.0651 3.65767C25.8944 2.64207 25.3715 1.71898 24.5884 1.05025C23.8052 0.381492 22.8116 0.00976075 21.7818 0.000188992C20.7519 -0.00936865 19.7516 0.343855 18.9562 0.997939C18.1606 1.65204 17.6208 2.56525 17.4312 3.5775L17.4034 3.71317C17.098 4.02973 16.845 4.39302 16.6542 4.78934L16.3458 5.63423C16.199 5.75054 16.059 5.87512 15.9264 6.00734L14.9458 7.49054L12.8953 9.14949L10.5148 10.0005L10.4593 10.0314L10.4284 10.053L9.08092 10.1085H9.03775C8.78215 10.1709 8.53246 10.2556 8.29153 10.3613L7.60698 10.2287H7.59156C7.09424 10.179 6.59201 10.224 6.11146 10.3613C5.20872 10.0236 4.21585 10.0146 3.30714 10.3359C2.39842 10.6572 1.63192 11.2883 1.14215 12.1185C0.652377 12.9486 0.47064 13.9248 0.628829 14.8755C0.787017 15.8263 1.27505 16.691 2.00723 17.3178L2.03191 17.3363C2.14848 17.8151 2.35119 18.2685 2.63012 18.6745L3.08956 19.2234C3.11442 19.4757 3.16084 19.7253 3.22832 19.9697L3.84504 21.2216V21.2679L4.25823 23.8303L3.79262 26.3928L3.01865 27.8729L2.99397 27.9346C2.94097 28.1105 2.89976 28.2896 2.87064 28.4711L2.30942 29.1155L2.28785 29.1433C2.03393 29.4935 1.83721 29.8817 1.70504 30.2935L1.60638 30.3766C0.807021 31.0314 0.264565 31.9474 0.074683 32.9631C-0.115199 33.9788 0.0597041 35.0288 0.568532 35.9281C1.07736 36.8274 1.88742 37.5182 2.85583 37.8785C3.82424 38.2388 4.88878 38.2455 5.86169 37.8975L5.92337 37.8728C6.37016 37.987 6.83275 38.0266 7.29247 37.99L8.10961 37.8481C8.30976 37.9306 8.51593 37.9976 8.72631 38.0486L10.3791 38.1535L12.883 39.1155L14.8965 40.8207L14.952 40.8546L15.7105 42.048L15.7352 42.0788C15.9124 42.2678 16.1065 42.44 16.3149 42.5938L16.5646 43.3153C16.7689 43.7696 17.0578 44.1809 17.4158 44.5272V44.5735C17.5567 45.5326 18.0405 46.4084 18.7774 47.0383C19.5145 47.6681 20.4549 48.0096 21.4244 47.9993H21.4645C22.4263 48.0175 23.3626 47.6893 24.1025 47.0746C24.8424 46.4598 25.3365 45.5994 25.4948 44.6506V44.5673C25.8453 44.2301 26.1316 43.832 26.3396 43.3924L26.6079 42.6617C26.8037 42.519 26.9874 42.3601 27.1567 42.1868L27.9893 40.9348L30.0676 39.2511L32.5561 38.36L34.0978 38.2952H34.1626C34.366 38.2462 34.5659 38.1834 34.7607 38.1072L35.5255 38.2551H35.5595C35.7008 38.2701 35.8428 38.2773 35.985 38.2767C36.2965 38.2756 36.6068 38.2395 36.91 38.1689L36.9594 38.1874C37.4758 38.3874 38.0244 38.4919 38.5783 38.4957C39.3316 38.4847 40.069 38.2776 40.7178 37.8947C41.3667 37.5118 41.9045 36.9666 42.2785 36.3126C42.8239 35.4299 43.0301 34.3793 42.8587 33.356C42.6875 32.3329 42.1503 31.4067 41.3473 30.7498ZM39.8641 34.9002C39.248 36.0128 38.2551 36.8689 37.0642 37.3148L36.4475 37.0835C38.3287 35.4604 39.62 33.2606 40.1201 30.8269L40.6196 31.2525C40.8159 32.5197 40.5477 33.8153 39.8641 34.9002ZM27.6779 40.5124C27.5699 40.5617 27.4558 40.6111 27.3356 40.6573L27.6285 39.8648L28.199 39.8031L27.7889 40.4199L27.6779 40.5124ZM26.3458 42.2946C26.1872 42.4066 26.0225 42.5095 25.8524 42.6031L26.0374 41.604C26.2502 41.5515 26.4567 41.4991 26.6541 41.4405L26.3458 42.2946ZM25.2511 44.2866C24.1814 45.182 22.8289 45.6692 21.434 45.662C20.0391 45.6546 18.6919 45.1532 17.6317 44.2465L17.4713 43.2752C18.7201 43.7974 20.0616 44.0617 21.4152 44.0523H21.5293C22.8651 44.073 24.1914 43.8255 25.43 43.3246L25.2511 44.2866ZM21.4183 43.6052C20.024 43.6145 18.6449 43.3165 17.3788 42.7325L17.1937 41.6225C18.6525 41.9387 20.1415 42.0937 21.6342 42.085C23.0113 42.0934 24.3857 41.9592 25.7352 41.6842L25.5317 42.7818C24.2387 43.3585 22.8336 43.6397 21.4183 43.6052ZM16.2563 41.3727C16.4599 41.4374 16.6726 41.496 16.8916 41.5485L17.0612 42.563C16.8853 42.4621 16.7153 42.3508 16.5524 42.23L16.2563 41.3727ZM15.1371 40.3489L14.7176 39.686L15.3097 39.7599L15.5903 40.571C15.4516 40.5155 15.3159 40.4569 15.1895 40.3952L15.1371 40.3489ZM3.03099 34.5642C2.36113 33.4547 2.11986 32.1388 2.35259 30.8638L2.87372 30.4352C3.08291 31.6728 3.51326 32.8625 4.14415 33.9474C4.73458 35.0147 5.50318 35.9732 6.41672 36.7813L5.7661 37.0094C4.59439 36.5427 3.62555 35.6766 3.03099 34.5642ZM4.37233 21.2555C4.37233 21.123 4.40317 20.9842 4.42475 20.8423L4.94588 21.4591C4.8657 21.6318 4.7886 21.8044 4.7146 21.974L4.38158 21.3049L4.37233 21.2555ZM3.52743 19.1989C3.50811 19.0042 3.49988 18.8085 3.50277 18.613L4.24899 19.2512C4.18731 19.4547 4.12873 19.6583 4.07939 19.8679L3.52743 19.1989ZM3.12041 13.2876C3.79208 12.0674 4.90534 11.1505 6.23172 10.7252L7.11361 11.0551C4.96776 12.7522 3.53717 15.193 3.10498 17.8945L2.39269 17.2777C2.11176 15.9037 2.37248 14.4741 3.12041 13.2876ZM4.86262 14.3053C5.55131 13.0946 6.49896 12.0511 7.63781 11.2494L8.65538 11.6287C6.73989 13.7568 5.27181 16.2484 4.33841 18.9552L3.51819 18.2521C3.66565 16.8497 4.12502 15.4979 4.86262 14.296V14.3053ZM9.31835 10.9503C9.16726 11.0921 9.01 11.2586 8.8589 11.4036L7.93385 11.0582C8.10755 10.957 8.28666 10.8654 8.47037 10.7838L9.31835 10.9503ZM10.7214 10.497L11.5046 10.4662L11.1531 10.9287L10.3421 10.7745C10.4685 10.6758 10.595 10.5834 10.7183 10.5001L10.7214 10.497ZM32.7103 10.7067C32.8366 10.793 32.9631 10.8917 33.0895 10.9965L32.2508 11.1415C32.1305 10.975 32.0133 10.8115 31.8961 10.6543L32.701 10.7036L32.7103 10.7067ZM34.989 11.0366C35.1755 11.1291 35.3568 11.2321 35.5317 11.345L34.5727 11.6842C34.4185 11.5177 34.2644 11.3573 34.1102 11.2062L34.989 11.0366ZM40.3081 13.6392C41.0425 14.8474 41.277 16.2942 40.9619 17.6725L40.2217 18.2891C39.8476 15.5723 38.4651 13.0955 36.3488 11.3512L37.274 11.0428C38.576 11.4905 39.6601 12.4149 40.3081 13.6299V13.6392ZM39.1827 20.2379C39.1395 20.0406 39.0871 19.8371 39.0316 19.6213L39.7993 19.0046C39.7972 19.1973 39.7839 19.3899 39.7592 19.5812L39.1827 20.2379ZM38.8558 21.5701L38.8311 21.7088L38.495 22.3471C38.4271 22.1807 38.3562 22.008 38.2791 21.8322L38.8187 21.2154C38.8331 21.3347 38.8455 21.4529 38.8558 21.5701ZM29.9905 37.7773C30.0799 37.5984 30.1694 37.4164 30.2619 37.2346L31.2517 37.4226L31.0112 37.731L29.9905 37.7773ZM28.5813 39.1433C28.3501 39.1741 28.1095 39.2019 27.866 39.2266L28.1743 38.3878L29.0994 38.4587L28.6646 39.1155L28.5813 39.1433ZM16.8083 39.2912L16.6326 38.2429C16.634 38.2213 16.634 38.1997 16.6326 38.1781C19.7562 38.0825 23.2776 38.1165 26.3859 38.2767V38.3324L26.1916 39.3714C23.0647 39.5588 19.9286 39.5319 16.8052 39.2912H16.8083ZM26.059 39.9912L25.8493 41.1137C22.9635 41.7085 19.9846 41.6874 17.1075 41.052L16.9193 39.9141C18.5444 40.0406 20.3482 40.1054 22.1274 40.1054C23.4781 40.1146 24.8163 40.0653 26.0497 39.9912H26.059ZM14.2921 39.0045L13.8512 38.3108C14.1596 38.2892 14.4679 38.2707 14.7978 38.2551L15.1062 39.1186C14.8317 39.0816 14.5635 39.0477 14.3075 39.0076L14.2921 39.0045ZM11.924 37.5552L11.6773 37.2253L12.6455 37.0588H12.6948C12.7904 37.2531 12.8799 37.4442 12.9693 37.6323L11.924 37.5552ZM10.2434 12.2145C8.53431 14.7206 6.98931 17.3348 5.61809 20.0406L4.77628 19.3221C5.70492 16.5414 7.20717 13.9864 9.18577 11.8229L10.2434 12.2145ZM10.8324 12.4366L11.85 12.8158C10.3853 15.5479 8.60915 18.5574 6.91627 21.1415L6.09604 20.4415C7.48774 17.6687 9.06711 14.9942 10.8231 12.4366H10.8324ZM13.105 10.3891C12.9724 10.6574 12.8336 10.9349 12.6887 11.2155L11.8284 11.049C11.9949 10.83 12.1552 10.6204 12.3156 10.4323L13.105 10.3891ZM29.2628 10.0992L28.6307 10.1393C28.6153 10.0931 28.5998 10.0468 28.5875 10.0036L28.2946 9.15257L28.6985 9.21116L29.2628 10.0992ZM31.113 10.5957C31.2701 10.8023 31.4213 11.0212 31.5971 11.2494L30.7059 11.4036C30.5641 11.0952 30.4285 10.827 30.2957 10.5463L31.113 10.5957ZM37.1597 20.8053L36.3149 21.5022C34.6807 18.8719 32.9507 15.8161 31.5292 13.044L32.5653 12.6709C34.2747 15.2753 35.8046 17.9931 37.1444 20.8053H37.1597ZM33.1728 12.4612L34.2521 12.0789C36.1906 14.2897 37.6426 16.8837 38.5135 19.6921L37.6224 20.4045C36.3082 17.6626 34.8166 15.0092 33.1574 12.4612H33.1728ZM38.1065 23.0039V23.078L37.7549 23.7717C37.5915 23.5282 37.4281 23.2783 37.2584 23.0194L37.832 22.3595C37.9286 22.5774 38.0181 22.7922 38.1003 23.0039H38.1065ZM38.5228 28.3292L37.7734 27.6847C37.8258 27.5799 37.8783 27.469 37.9276 27.3764L38.5721 28.1473C38.5474 28.1997 38.5474 28.2645 38.5166 28.3292H38.5228ZM39.0562 28.7147L39.2535 28.952L39.0408 28.7702C39.0408 28.7517 39.0439 28.7332 39.0501 28.7054L39.0562 28.7147ZM33.0618 35.8069C34.6468 33.4506 36.0885 31.0009 37.3787 28.4711L38.239 29.2296C37.334 31.8031 35.9393 34.1768 34.1318 36.2201L33.0618 35.8069ZM28.3995 37.7002C28.4888 37.4257 28.5813 37.1513 28.68 36.8737C29.0655 36.9508 29.4416 37.0341 29.8148 37.1236C29.7007 37.3486 29.5927 37.5707 29.4848 37.7895L28.3995 37.7002ZM26.8083 37.5984C26.8822 37.2593 26.9624 36.92 27.0488 36.587C27.4743 36.6518 27.8967 36.7227 28.3162 36.8029C28.2144 37.0927 28.1157 37.3856 28.0078 37.6755C27.6193 37.6478 27.2153 37.6262 26.8022 37.6046L26.8083 37.5984ZM14.9644 37.5429C14.8749 37.2346 14.7793 36.9478 14.6775 36.6487C15.1093 36.5777 15.5441 36.5161 15.9819 36.4605C16.0621 36.8029 16.136 37.1451 16.2039 37.4905L14.9644 37.5429ZM13.4719 37.6354C13.3671 37.4072 13.2591 37.1791 13.145 36.9447C13.5274 36.8614 13.919 36.7844 14.3137 36.7165C14.4093 37.0002 14.5018 37.2838 14.5882 37.5645C14.1872 37.5922 13.8265 37.6138 13.4657 37.6478L13.4719 37.6354ZM12.4667 35.5694C12.8953 35.4275 13.3239 35.2981 13.7587 35.1809C13.8604 35.4462 13.9591 35.7113 14.067 35.9733C13.6415 36.0505 13.2221 36.1368 12.8089 36.2263L12.4667 35.5694ZM6.11146 27.7804L7.06427 26.9941L7.10744 26.9571C8.64923 29.4608 10.2773 32.3225 11.6341 34.9558L11.5724 34.9743L10.3976 35.3905C8.80962 32.9469 7.37805 30.405 6.11146 27.7804ZM9.87032 35.5633L8.7479 35.9579C6.97623 33.8736 5.62633 31.465 4.77319 28.8658L5.67975 28.1195C6.92369 30.6838 8.32315 33.1697 9.87032 35.5633ZM26.0435 8.93056L26.2378 10.09C26.2378 10.1393 26.2564 10.1856 26.2656 10.2349C23.2992 10.3212 19.9968 10.2873 17.0427 10.1424L17.0705 10.0036L17.2862 8.85347C20.2081 8.69366 23.1373 8.71941 26.0559 8.93056H26.0435ZM17.3849 8.31386L17.6038 7.13901C20.2996 6.62903 23.0691 6.64998 25.7568 7.20068L25.9541 8.38477C23.1059 8.188 20.2482 8.16637 17.3973 8.32001L17.3849 8.31386ZM29.4971 10.5278C29.6483 10.8578 29.8056 11.197 29.9782 11.5423C29.6914 11.604 29.4046 11.6595 29.1117 11.715C28.9791 11.3327 28.8557 10.9534 28.7417 10.5741L29.4971 10.5278ZM35.7723 21.9586C35.5101 22.1867 35.251 22.4181 34.9982 22.6554C32.8968 19.8603 31.1602 16.8086 29.8301 13.5744C30.1725 13.4788 30.5116 13.374 30.8509 13.266C32.3033 16.1245 34.0763 19.2512 35.7723 21.9586ZM37.3756 24.4255C37.2399 24.6198 37.1012 24.8171 36.9625 25.0206C36.7066 24.743 36.4537 24.4532 36.2038 24.1602C36.3951 23.9444 36.5863 23.7347 36.7805 23.5282C36.9748 23.8396 37.1722 24.1386 37.3695 24.4285L37.3756 24.4255ZM30.9188 35.0174C30.4808 34.8603 30.0399 34.7091 29.5958 34.5765C30.9322 31.5433 32.6269 28.681 34.6436 26.0504C34.9725 26.3712 35.3108 26.6795 35.6581 26.9756C34.0331 29.504 32.3341 32.3811 30.9125 35.0205L30.9188 35.0174ZM16.1022 10.5371C16.0097 10.975 15.9079 11.4097 15.7938 11.8414C15.5225 11.7983 15.2543 11.7551 14.989 11.7058C15.1371 11.3018 15.2727 10.8979 15.4022 10.4939L16.1022 10.5371ZM33.9406 24.1047C34.1595 23.8735 34.3784 23.6454 34.6036 23.4233C34.881 23.781 35.1627 24.1304 35.4484 24.4717C35.2666 24.6844 35.0908 24.9034 34.9119 25.1223C34.5727 24.7862 34.249 24.4501 33.922 24.1016L33.9406 24.1047ZM33.7493 23.8889C31.2138 21.0195 29.2924 17.6615 28.1034 14.0215C28.4302 13.9506 28.754 13.8766 29.0778 13.7933C30.4475 17.1462 32.2458 20.3074 34.4278 23.1983C34.1904 23.4171 33.9683 23.6514 33.7433 23.8858L33.7493 23.8889ZM33.1666 24.5242C30.6862 27.2972 28.7705 30.5273 27.5267 34.0338C23.5869 33.1462 19.5046 33.0958 15.5441 33.8859C14.3476 30.3243 12.4616 27.0333 9.99365 24.2003C12.6774 21.2647 14.7265 17.8069 16.0128 14.0431C19.7122 14.8316 23.5311 14.8797 27.2493 14.185C28.4809 18.0032 30.4941 21.5232 33.1605 24.5211L33.1666 24.5242ZM28.0139 13.7317C27.866 13.266 27.7303 12.8066 27.6069 12.3286C27.8989 12.2896 28.1887 12.2464 28.4765 12.1991C28.6307 12.6339 28.7849 13.0718 28.9698 13.5066C28.6461 13.596 28.3253 13.67 28.0078 13.7409L28.0139 13.7317ZM27.166 13.8982C23.5097 14.577 19.7557 14.5299 16.1175 13.7594C16.2738 13.2845 16.4188 12.8035 16.5524 12.3163C19.935 12.7731 23.3607 12.8124 26.7528 12.4335C26.8731 12.9361 27.0087 13.4233 27.1598 13.9043L27.166 13.8982ZM16.6542 11.9679C16.7744 11.5115 16.8792 11.0428 16.9779 10.5864C19.9844 10.7375 23.3578 10.7714 26.3765 10.682C26.4661 11.1507 26.5647 11.6071 26.685 12.082C23.3492 12.4518 19.9807 12.4135 16.6542 11.9679ZM15.7105 12.2022C15.5811 12.6648 15.4392 13.1273 15.2881 13.5775C14.9798 13.5035 14.6715 13.4264 14.363 13.34C14.5419 12.9145 14.7116 12.4859 14.8687 12.0604L15.7105 12.2022ZM15.1926 13.8488C13.9508 17.4411 11.9921 20.7435 9.43552 23.5559C9.21968 23.3184 9.00076 23.0871 8.77565 22.859C10.988 20.0215 12.8284 16.9127 14.252 13.6083C14.5481 13.6916 14.8626 13.7717 15.1772 13.8488H15.1926ZM9.22894 23.7717C8.90825 24.117 8.5783 24.4553 8.23911 24.7862C8.06642 24.5641 7.89066 24.3453 7.71799 24.1326C8.00784 23.7933 8.29667 23.4459 8.58447 23.0903C8.80339 23.3092 9.01617 23.5374 9.22894 23.7717ZM9.80247 24.4131C12.2243 27.2051 14.0763 30.4441 15.2543 33.9474C14.7608 34.0523 14.2705 34.1695 13.7833 34.299C12.4724 31.1657 10.7857 28.2034 8.76024 25.477C9.11792 25.1255 9.46534 24.7698 9.80247 24.41V24.4131ZM15.5225 34.7585C15.615 35.0771 15.7045 35.3946 15.7907 35.7113C15.3251 35.773 14.8657 35.8407 14.4155 35.9178C14.3168 35.6434 14.2151 35.366 14.1071 35.0884C14.5758 34.965 15.0476 34.8541 15.5225 34.7554V34.7585ZM15.8031 34.706C19.5858 33.968 23.4799 34.0163 27.2431 34.8478C27.1413 35.1562 27.0457 35.48 26.9533 35.8006C23.3487 35.2879 19.6927 35.2465 16.0774 35.6774C15.9912 35.3504 15.8987 35.0267 15.8031 34.703V34.706ZM27.5206 34.9095C27.98 35.0174 28.4456 35.1377 28.8958 35.2704C28.7849 35.5386 28.6769 35.8069 28.5875 36.0751C28.1466 35.9888 27.7025 35.9118 27.2493 35.8407C27.3293 35.5262 27.422 35.2148 27.5238 34.9064L27.5206 34.9095ZM27.7982 34.0986C29.0259 30.6486 30.9107 27.4694 33.3485 24.7369C33.6785 25.1007 34.0177 25.4523 34.3661 25.7976C32.3113 28.4742 30.5864 31.3886 29.2289 34.4778C28.7602 34.3359 28.2823 34.2065 27.8012 34.0955L27.7982 34.0986ZM35.1555 25.3783C35.3281 25.1655 35.4978 24.9589 35.6705 24.7615C35.9418 25.07 36.2194 25.3783 36.4968 25.6866L36.1114 26.2663C35.7999 25.9765 35.4793 25.6804 35.1555 25.3783ZM36.8021 26.0382L37.536 26.917C37.4713 27.0527 37.4034 27.1914 37.3386 27.3302L36.4907 26.6055L36.4506 26.5686C36.5801 26.3897 36.6973 26.2108 36.8144 26.0382H36.8021ZM35.948 23.8797C35.6767 23.5712 35.4114 23.2259 35.1524 22.8837C35.3991 22.6525 35.652 22.4273 35.9079 22.2052C36.1258 22.5507 36.3416 22.8868 36.5554 23.2136C36.3642 23.4326 36.1608 23.6514 35.9603 23.8797H35.948ZM29.7038 13.3092C29.5372 12.896 29.3799 12.4828 29.232 12.0758C29.5403 12.0172 29.8486 11.9555 30.1571 11.8908C30.3358 12.2587 30.5209 12.6319 30.7121 13.0101C30.3821 13.1119 30.0491 13.2136 29.7161 13.3092H29.7038ZM28.3378 11.8569L27.5053 11.9802C27.3973 11.5393 27.3017 11.0983 27.2153 10.6512L27.9461 10.6234C28.0787 11.0305 28.2113 11.4375 28.3501 11.8569H28.3378ZM27.1382 10.2041C27.1382 10.1177 27.1012 10.0314 27.0889 9.94505L26.9317 9.00148L27.4251 9.05082L27.8136 10.1763L27.1382 10.2041ZM16.2347 9.84329C16.2193 9.92656 16.2008 10.0098 16.1823 10.0931L15.5348 10.0561L15.9388 8.94907L16.4075 8.91206L16.2347 9.84329ZM14.7762 9.87105V9.88955C14.7762 9.92656 14.7515 9.96356 14.7423 9.99747L14.1257 9.94813L14.6991 9.08166L15.0785 9.03849L14.7762 9.87105ZM14.5944 10.4384C14.4741 10.8084 14.3445 11.1816 14.2088 11.5547C13.9283 11.4961 13.6508 11.4344 13.3732 11.3697C13.5428 11.0305 13.7093 10.7005 13.8666 10.3768L14.5944 10.4384ZM13.2036 11.7058C13.4935 11.7736 13.7864 11.8414 14.0825 11.9031C13.9314 12.3071 13.7741 12.7079 13.5983 13.1119C13.2746 13.0132 12.9539 12.9053 12.6363 12.8035L13.2036 11.7058ZM12.4975 13.0502C12.8244 13.1643 13.1543 13.2753 13.4842 13.377C12.1051 16.5686 10.3282 19.5731 8.19594 22.3194C7.94926 22.082 7.6964 21.8507 7.44046 21.6224C9.18268 18.949 11.002 15.8685 12.5037 13.0533L12.4975 13.0502ZM7.28938 21.8599C7.53914 22.082 7.78582 22.3101 8.02634 22.5414C7.75807 22.8775 7.48673 23.2074 7.2092 23.5311C7.01494 23.303 6.81759 23.084 6.62024 22.8652C6.84226 22.5383 7.06427 22.2052 7.28938 21.8599ZM6.40747 23.1796C6.59556 23.3863 6.78059 23.5959 6.9656 23.7964C6.71069 24.0884 6.45168 24.3751 6.18854 24.6567C6.05287 24.4501 5.92027 24.2558 5.79076 24.0615C5.99428 23.7717 6.20088 23.485 6.40747 23.1796ZM7.47131 24.4131C7.6409 24.6198 7.80433 24.8294 7.96776 25.0299C7.6594 25.3382 7.32638 25.6249 6.99026 25.9117L6.62332 25.332C6.90701 25.0359 7.19071 24.7276 7.47131 24.407V24.4131ZM6.648 26.2201L6.52157 26.328L5.73834 26.9756L5.55333 26.547L6.31188 25.6712L6.648 26.2201ZM7.44972 26.6579C7.80741 26.3496 8.15277 26.0413 8.49196 25.7329C10.4795 28.413 12.1361 31.3234 13.4256 34.4007C12.9693 34.5282 12.516 34.667 12.0658 34.8171C10.6844 32.122 9.0285 29.1988 7.44972 26.6517V26.6579ZM16.2625 36.439C19.748 36.0326 23.2712 36.073 26.7466 36.5592C26.6603 36.9025 26.5801 37.2478 26.5061 37.5953C24.5142 37.4874 22.368 37.4319 20.2526 37.4319C18.9668 37.4319 17.6963 37.4535 16.4784 37.4936C16.4198 37.1328 16.3458 36.7844 16.2625 36.4328V36.439ZM28.9453 36.1522C29.0439 35.8933 29.1456 35.6373 29.2536 35.3783C29.676 35.5047 30.0923 35.6434 30.5086 35.7884L30.1725 36.4143C29.7685 36.3188 29.3614 36.2293 28.9453 36.1461V36.1522ZM30.9341 35.9394L30.9896 35.9579L32.038 36.3526C31.9455 36.4821 31.8531 36.6148 31.7605 36.7412L30.6288 36.5222C30.7275 36.3248 30.8386 36.1276 30.9341 35.9334V35.9394ZM31.3412 35.1747C32.738 32.5845 34.4031 29.7693 35.9911 27.2993L36.9594 28.1288C35.6472 30.7191 34.1723 33.2239 32.5437 35.628L31.3412 35.1747ZM37.8999 26.1368L37.2646 25.3752L37.5977 24.8911L38.0479 25.7945C38.0027 25.9056 37.9533 26.0175 37.8999 26.1306V26.1368ZM38.3593 26.4174L38.6924 27.0865L38.2791 26.5931L38.3593 26.4174ZM37.0519 22.6924C36.8545 22.3841 36.654 22.0758 36.4537 21.7674L37.2615 21.1014C37.4034 21.4097 37.5391 21.718 37.6656 22.0018L37.0519 22.6924ZM31.3966 12.785H31.3813C31.2024 12.4335 31.0266 12.0881 30.8571 11.7459L31.8161 11.5793C32.0103 11.8507 32.2046 12.1313 32.4018 12.4273L31.3966 12.785ZM28.091 8.60061L27.8475 7.88832L28.3162 8.62837L28.091 8.60061ZM26.8577 8.47111L26.6757 7.42886L26.8978 7.49979L27.24 8.4927C27.1105 8.48653 26.978 8.47419 26.8453 8.46494L26.8577 8.47111ZM26.577 6.77515L26.503 6.34036L26.6634 6.79982L26.577 6.77515ZM17.7364 6.5038L17.9215 5.5109C20.3586 4.5613 23.0662 4.57785 25.4917 5.55715L25.6581 6.56239C23.0435 6.05742 20.3583 6.03757 17.7364 6.5038ZM16.7034 7.37952L16.5154 8.38477L16.1485 8.41252L16.5061 7.43811L16.7034 7.37952ZM16.7651 6.72582L16.8854 6.41746L16.8268 6.72582H16.7651ZM15.0939 8.51428L15.5225 7.86364L15.2943 8.48036L15.0939 8.51428ZM12.5067 11.5639C12.3372 11.8939 12.1583 12.2331 11.9764 12.5722L10.9897 12.2022C11.1901 11.9185 11.3843 11.6472 11.5786 11.3851L12.5067 11.5639ZM6.76517 21.4036C6.55548 21.7119 6.35196 22.0203 6.14846 22.3286L5.55333 21.6133C5.68592 21.3234 5.82468 21.0274 5.97577 20.7222L6.76517 21.4036ZM5.93261 22.6369C5.75993 22.8929 5.59033 23.1426 5.42074 23.3863L5.07538 22.6863C5.16789 22.4581 5.27068 22.2207 5.38373 21.974L5.93261 22.6369ZM5.55333 24.518C5.66126 24.6783 5.76917 24.8263 5.86169 25.0052L5.81851 25.0513L5.2018 25.7606C5.15246 25.6465 5.10621 25.5325 5.06305 25.4215L5.55333 24.518ZM4.8287 26.2077L4.42475 26.6733L4.76085 26.0382L4.8287 26.2077ZM5.32207 27.3178L4.54808 27.9531C4.53267 27.8883 4.52034 27.8266 4.508 27.7649L5.17404 26.9941C5.21414 27.1019 5.26656 27.2099 5.3159 27.3178H5.32207ZM4.01156 28.3971L3.82345 28.5543L3.99922 28.3508C4.00477 28.3659 4.00889 28.3813 4.01156 28.3971ZM4.27057 29.2944C5.12595 31.8106 6.4355 34.1486 8.13427 36.1923L7.18454 36.5253C5.16255 34.8737 3.84776 32.5121 3.50893 29.9235L4.27057 29.2944ZM9.39544 36.6549L10.3668 36.3094L10.5919 36.6394L9.56812 36.8182L9.39544 36.6549ZM8.82498 36.9478L8.32853 37.031L8.76948 36.8768L8.82498 36.9478ZM10.8879 36.106L11.8592 35.7637C11.9147 35.7421 11.9733 35.7267 12.0288 35.7082C12.1336 35.9118 12.2354 36.1152 12.3372 36.3248L11.1716 36.5284L10.8879 36.106ZM15.171 38.2244L16.3304 38.1781L16.3489 38.2798L16.5123 39.2574C16.1607 39.2266 15.8216 39.1896 15.4917 39.1525L15.171 38.2244ZM26.6387 38.3754C26.6387 38.3446 26.6541 38.3137 26.6603 38.283C27.0426 38.3014 27.4189 38.3261 27.7889 38.3509L27.4467 39.2667C27.1382 39.2974 26.7929 39.3253 26.4507 39.3498L26.6387 38.3754ZM31.8284 37.5275L32.519 37.6601L31.7019 37.694C31.7451 37.6478 31.7852 37.5922 31.8284 37.5367V37.5275ZM32.553 36.5284L33.478 36.8799L33.3147 37.0279L32.3218 36.8367L32.553 36.5284ZM34.1256 37.1174L34.4771 37.25L34.0701 37.1698L34.1256 37.1174ZM38.7509 29.649L39.4879 30.2657C39.086 32.8392 37.7229 35.1644 35.6736 36.7721L34.7485 36.4266C36.4858 34.4335 37.8443 32.1397 38.7572 29.6582L38.7509 29.649ZM38.2822 24.7153L38.0232 24.2003L38.2236 23.818L38.3254 24.4594L38.2822 24.7153ZM38.1096 21.4591C37.9944 21.2022 37.8742 20.94 37.7487 20.6727L38.5721 19.9944C38.64 20.2472 38.6924 20.4939 38.7385 20.7344L38.1096 21.4591ZM38.5166 14.6136C39.2362 15.8372 39.6703 17.2074 39.787 18.6222L38.939 19.319C38.0637 16.587 36.648 14.0588 34.7763 11.8846L35.8246 11.5146C36.9396 12.338 37.8607 13.3958 38.5228 14.6136H38.5166ZM34.0207 11.8384L32.997 12.2145C32.8244 11.9586 32.6547 11.7058 32.4851 11.4622L33.4534 11.2957C33.6446 11.4683 33.8357 11.6533 34.0269 11.8507L34.0207 11.8384ZM30.5301 10.1116L30.0522 10.0838L29.7192 9.55961L30.0028 9.66753L30.5301 10.1116ZM25.2419 4.03694L25.356 4.73076C23.0013 3.90356 20.4375 3.88727 18.0726 4.68449L18.199 3.99994C19.1829 3.20196 20.4202 2.78296 21.6865 2.81895H21.7482C23.0208 2.79489 24.26 3.22693 25.2419 4.03694ZM13.6477 9.42702L13.3393 9.88646L13.3208 9.92039L12.8675 9.93888L13.3825 9.51952L13.6477 9.42702ZM10.9126 11.2371C10.743 11.4714 10.5703 11.715 10.3976 11.9617L9.40469 11.5917C9.5928 11.4005 9.78398 11.2216 9.97516 11.0582L10.9126 11.2371ZM4.69301 19.6119L5.49165 20.2965C5.35906 20.5618 5.23572 20.8238 5.11546 21.0798L4.49876 20.352C4.55425 20.1176 4.61901 19.8741 4.69301 19.6213V19.6119ZM4.93971 23.4171L5.13396 23.8087L4.86878 24.3175L4.82562 24.0555L4.93971 23.4171ZM10.3421 37.4473L11.1037 37.3393L11.2363 37.5275L10.3637 37.472L10.3421 37.4473ZM12.7103 38.2892L13.327 38.3293L13.5829 38.7301L12.9354 38.4834L12.7103 38.2892ZM15.729 39.8062L16.6326 39.8926L16.8114 40.978C16.5462 40.9071 16.2933 40.8299 16.0529 40.7437L15.729 39.8062ZM26.1607 41.0397L26.3581 39.9727L27.2369 39.9049L26.9009 40.8299C26.651 40.9009 26.4044 40.9749 26.1453 41.0397H26.1607ZM29.3739 38.8595L29.6236 38.4865L30.2157 38.4618L29.9998 38.6345L29.3739 38.8595ZM39.3121 20.8115C39.3121 20.7714 39.2967 20.7282 39.2874 20.685L39.5126 20.423L39.3121 20.8115ZM40.4438 18.7917L40.268 18.9984V18.6222L40.7953 18.1873C40.6955 18.4016 40.5724 18.6044 40.4284 18.7917H40.4438ZM42.1121 12.6462C42.5462 13.3775 42.7166 14.2355 42.5948 15.0772C42.4731 15.9188 42.0665 16.6934 41.4429 17.2715C41.5773 15.9566 41.3037 14.6322 40.6594 13.4782C40.015 12.3241 39.0312 11.3963 37.8413 10.8208C38.6525 10.5991 39.5148 10.6589 40.2876 10.9904C41.0606 11.322 41.6981 11.9057 42.0965 12.6462H42.1121ZM35.9449 10.864C36.2134 10.8419 36.4837 10.8522 36.7498 10.8948L36.0806 11.1291C35.9634 11.049 35.8462 10.9719 35.726 10.901L35.9449 10.864ZM34.249 10.7869L33.7834 10.867L33.6477 10.7499L34.249 10.7869ZM21.7543 0.851638C22.4174 0.847925 23.0677 1.0345 23.6278 1.38921C24.188 1.74393 24.6349 2.2519 24.915 2.85287C23.936 2.3306 22.8452 2.05332 21.7358 2.04472C20.6263 2.03612 19.5312 2.29649 18.5444 2.80353C18.8367 2.20527 19.2946 1.70338 19.8635 1.35742C20.4325 1.01145 21.0886 0.835939 21.7543 0.851638ZM9.79013 10.5278L9.66371 10.6327L9.24127 10.5494L9.79013 10.5278ZM7.19995 10.5803C7.31292 10.574 7.42616 10.574 7.53914 10.5803L7.74266 10.6204C7.62857 10.6851 7.51448 10.756 7.3973 10.8331L6.7621 10.5957C6.90758 10.5814 7.05382 10.5762 7.19995 10.5803ZM1.37819 12.2639C1.70318 11.6953 2.17066 11.2211 2.73459 10.888C3.29852 10.5549 3.93949 10.3745 4.59435 10.3644C4.95214 10.3664 5.30798 10.4172 5.65201 10.5155C4.45858 11.0684 3.46258 11.9728 2.79741 13.1075C2.13223 14.2423 1.82965 15.5531 1.93015 16.8645C1.33158 16.273 0.951134 15.4961 0.850899 14.6606C0.750664 13.8251 0.936537 12.9802 1.37819 12.2639ZM2.56228 17.7988L3.06799 18.2305C3.06799 18.3631 3.05256 18.4896 3.05256 18.6191L2.91381 18.4526C2.7721 18.2487 2.65416 18.0295 2.56228 17.7988ZM3.73711 20.0098L3.98071 20.2996L3.95297 20.4415L3.73711 20.0098ZM1.31344 35.4892C0.977803 34.9159 0.814165 34.2582 0.842061 33.5945C0.869944 32.9307 1.08816 32.289 1.47069 31.7458C1.50102 32.8506 1.79709 33.9319 2.33383 34.8981C2.87058 35.8642 3.63222 36.6868 4.55427 37.2963C3.89835 37.3331 3.24546 37.1829 2.67168 36.863C2.0979 36.5431 1.62685 36.0666 1.31344 35.4892ZM15.6582 41.163L15.8154 41.2215L15.9634 41.6441L15.6582 41.163ZM16.8916 43.1766L16.8052 42.9237C16.9224 42.9946 17.0427 43.0594 17.1692 43.1211L17.2862 43.8333C17.1285 43.6366 16.9921 43.4237 16.8792 43.1981L16.8916 43.1766ZM21.4553 47.7125H21.4183C20.5729 47.7203 19.7502 47.4404 19.0849 46.9187C18.4198 46.3969 17.9518 45.6645 17.758 44.8417C18.8157 45.6282 20.1035 46.0433 21.4213 46.0227H21.4923C22.8001 46.0571 24.0823 45.6557 25.137 44.8818C24.9364 45.7046 24.4608 46.4343 23.7891 46.9502C23.1174 47.4661 22.2896 47.7371 21.4429 47.7186L21.4553 47.7125ZM26.0065 43.2476C25.904 43.4662 25.778 43.6729 25.6304 43.8642L25.7599 43.1766C25.8771 43.118 25.9911 43.0594 26.0991 42.9946L26.0065 43.2476ZM26.9809 41.6533L27.1105 41.3048L27.2431 41.2585L26.9809 41.6533ZM41.5478 35.8686C41.2245 36.4374 40.747 36.9032 40.1702 37.2121C39.5935 37.5209 38.941 37.6602 38.2884 37.6138C39.2195 37.027 39.9961 36.2254 40.5531 35.2762C41.1101 34.327 41.431 33.2581 41.4892 32.159C41.8499 32.7097 42.0459 33.3519 42.054 34.0101C42.0622 34.6684 41.8822 35.3153 41.5354 35.8748L41.5478 35.8686Z" fill="url(#paint0_linear_1_373)"/>
<defs>
<linearGradient id="paint0_linear_1_373" x1="1.76552" y1="18.0839" x2="41.1735" y2="29.8443" gradientUnits="userSpaceOnUse">
<stop stop-color="#5EE6D0"/>
<stop offset="0.51506" stop-color="#BFC6FF"/>
<stop offset="1" stop-color="#FFBA69"/>
</linearGradient>
</defs>
</svg>
