<svg width="105" height="32" viewBox="0 0 105 32" fill="none" xmlns="http://www.w3.org/2000/svg">
<path d="M29.2501 13.0393C28.0443 14.3207 26.5975 15.1716 24.9107 15.5928C26.4771 15.9851 27.6745 16.7304 28.5039 17.8306C29.3323 18.9308 29.747 20.2188 29.747 21.6945C29.747 22.1773 29.7013 22.6892 29.6116 23.2318C29.1287 26.0337 27.8258 28.1959 25.7018 29.7174C23.5769 31.2397 20.7814 32 17.3172 32H0.547852L6.19771 0H22.5149C25.4076 0 27.6595 0.565057 29.2726 1.69517C30.8837 2.82435 31.6907 4.4747 31.6907 6.64433C31.6907 7.15708 31.645 7.71374 31.5553 8.31615C31.2228 10.185 30.455 11.7588 29.2501 13.0393V13.0393ZM16.3925 7.49595L10.376 19.8542C10.3211 19.967 10.4029 20.0985 10.5284 20.099L13.3587 20.1117C13.4833 20.1122 13.5651 20.242 13.5119 20.3546L9.81766 28.181C9.73343 28.3594 9.96938 28.5142 10.0996 28.366L20.6245 16.3813C20.7242 16.2677 20.6376 16.0902 20.4867 16.0989L17.7526 16.2573C17.6051 16.2659 17.5175 16.0954 17.6103 15.9804L24.3134 7.67742C24.4033 7.56606 24.324 7.40021 24.1809 7.40021H16.5456C16.4805 7.40021 16.421 7.43738 16.3925 7.49595H16.3925Z" fill="url(#paint0_linear_495_1361)"/>
<g clip-path="url(#clip0_495_1361)">
<mask id="mask0_495_1361" style="mask-type:luminance" maskUnits="userSpaceOnUse" x="5" y="3" width="7" height="7">
<path d="M11.5515 3.14258H5.69061V9.04221H11.5515V3.14258Z" fill="white"/>
</mask>
<g mask="url(#mask0_495_1361)">
<path d="M8.66229 4.77945C8.67161 4.86046 8.68667 4.94004 8.70961 5.01891C8.73184 5.09705 8.76051 5.17305 8.79564 5.24689C8.83077 5.32002 8.87235 5.39028 8.91967 5.45695C8.96627 5.52362 9.01861 5.58528 9.07668 5.64335C9.13403 5.70071 9.19641 5.75304 9.26308 5.80036C9.32976 5.84768 9.3993 5.88854 9.47314 5.92367C9.54699 5.95952 9.62298 5.9882 9.70113 6.01042C9.77927 6.03265 9.85957 6.04842 9.94058 6.05702C10.4568 6.10864 10.9737 6.1323 11.4927 6.128C10.9737 6.1237 10.4561 6.14736 9.93987 6.19898C9.85885 6.20758 9.77927 6.22335 9.70113 6.24558C9.62226 6.2678 9.54627 6.29648 9.47314 6.33233C9.3993 6.36746 9.32976 6.40832 9.26308 6.45564C9.19641 6.50296 9.13403 6.55529 9.07668 6.61265C9.01861 6.67072 8.96627 6.73238 8.91967 6.79905C8.87235 6.86572 8.83077 6.93598 8.79564 7.00911C8.76051 7.08295 8.73184 7.15895 8.70961 7.23709C8.68667 7.31596 8.67161 7.39554 8.66229 7.47655C8.61067 7.99274 8.58773 8.50965 8.59203 9.02871C8.59562 8.50965 8.57268 7.99274 8.52106 7.47655C8.51174 7.39554 8.49668 7.31596 8.47374 7.23709C8.45152 7.15895 8.42284 7.08295 8.38771 7.00911C8.35258 6.93598 8.311 6.86572 8.26368 6.79905C8.21708 6.73238 8.16474 6.67072 8.10667 6.61265C8.04932 6.55529 7.98694 6.50296 7.92027 6.45564C7.85359 6.40832 7.78405 6.36746 7.71021 6.33233C7.63636 6.29648 7.56037 6.2678 7.48222 6.24558C7.40408 6.22335 7.32378 6.20758 7.24277 6.19898C6.72658 6.14736 6.20967 6.1237 5.69061 6.128C6.20967 6.1323 6.72658 6.10864 7.24277 6.05702C7.32378 6.04842 7.40408 6.03265 7.48222 6.01042C7.56037 5.9882 7.63636 5.95952 7.71021 5.92367C7.78405 5.88854 7.85359 5.84768 7.92027 5.80036C7.98694 5.75304 8.04932 5.70071 8.10667 5.64335C8.16474 5.58528 8.21708 5.52362 8.26368 5.45695C8.311 5.39028 8.35258 5.32002 8.38771 5.24689C8.42284 5.17305 8.45152 5.09705 8.47374 5.01891C8.49668 4.94004 8.51174 4.86046 8.52106 4.77945C8.57268 4.26326 8.59562 3.74635 8.59203 3.22729C8.58773 3.74635 8.61068 4.26326 8.66229 4.77945Z" fill="white"/>
</g>
<mask id="mask1_495_1361" style="mask-type:luminance" maskUnits="userSpaceOnUse" x="9" y="1" width="4" height="5">
<path d="M12.9757 1.42822H9.43048V5.07239H12.9757V1.42822Z" fill="white"/>
</mask>
<g mask="url(#mask1_495_1361)">
<path d="M11.25 2.38748C11.2608 2.48714 11.288 2.58249 11.3318 2.67282C11.3748 2.76315 11.4321 2.84417 11.5031 2.91514C11.5741 2.98612 11.6544 3.04276 11.7454 3.08649C11.8358 3.12951 11.9304 3.15675 12.0308 3.1675C12.3455 3.19905 12.6617 3.21339 12.9786 3.21124C12.6617 3.20837 12.3455 3.22271 12.0308 3.25425C11.9304 3.26501 11.8358 3.29225 11.7454 3.33527C11.6544 3.379 11.5741 3.43635 11.5031 3.50661C11.4321 3.57759 11.3748 3.6586 11.3318 3.74893C11.288 3.83927 11.2608 3.93462 11.25 4.03427C11.2185 4.34972 11.2042 4.66517 11.207 4.98206C11.2092 4.66517 11.1948 4.34972 11.1633 4.03427C11.1525 3.93462 11.1253 3.83927 11.0823 3.74893C11.0385 3.6586 10.9819 3.57759 10.9109 3.50733C10.84 3.43635 10.7589 3.379 10.6686 3.33526C10.5783 3.29225 10.4829 3.26501 10.3833 3.25425C10.0685 3.22271 9.75237 3.20837 9.43549 3.21123C9.75237 3.21339 10.0685 3.19905 10.3833 3.1675C10.4829 3.15675 10.5783 3.1295 10.6686 3.08649C10.7589 3.04276 10.84 2.98612 10.9109 2.91514C10.9819 2.84417 11.0393 2.76315 11.0823 2.67282C11.126 2.58249 11.1525 2.48713 11.164 2.38748C11.1948 2.07275 11.2092 1.75658 11.207 1.4397C11.2042 1.75658 11.2185 2.07275 11.25 2.38748Z" fill="white"/>
</g>
<mask id="mask2_495_1361" style="mask-type:luminance" maskUnits="userSpaceOnUse" x="15" y="23" width="7" height="7">
<path d="M21.0694 23.9998H15.9763V29.0928H21.0694V23.9998Z" fill="white"/>
</mask>
<g mask="url(#mask2_495_1361)">
<path d="M18.5852 25.3626C18.601 25.506 18.6397 25.643 18.7021 25.7727C18.7645 25.9032 18.8469 26.0186 18.9487 26.1212C19.0505 26.223 19.1667 26.3054 19.2971 26.3678C19.4269 26.4302 19.5638 26.4689 19.7072 26.4846C20.0514 26.5219 20.4959 26.5463 21.0694 26.5463C20.4959 26.5463 20.0514 26.5707 19.7072 26.6087C19.5638 26.6244 19.4269 26.6632 19.2971 26.7255C19.1667 26.7879 19.0505 26.8703 18.9487 26.9722C18.8469 27.074 18.7645 27.1901 18.7021 27.3206C18.6397 27.4503 18.601 27.5873 18.5852 27.7307C18.5472 28.0748 18.5229 28.5193 18.5229 29.0928C18.5229 28.5193 18.4985 28.0748 18.4612 27.7307C18.4454 27.5873 18.406 27.4503 18.3436 27.3206C18.282 27.1901 18.1995 27.074 18.0977 26.9722C17.9952 26.8703 17.8798 26.7879 17.7493 26.7255C17.6195 26.6632 17.4826 26.6244 17.3392 26.6087C16.9951 26.5707 16.5506 26.5463 15.9763 26.5463C16.5506 26.5463 16.9951 26.5219 17.3392 26.4846C17.4826 26.4689 17.6195 26.4302 17.7493 26.3678C17.8798 26.3054 17.9952 26.223 18.0977 26.1212C18.1995 26.0186 18.282 25.9032 18.3436 25.7727C18.406 25.643 18.4454 25.506 18.4612 25.3626C18.4985 25.0185 18.5229 24.574 18.5229 23.9998C18.5229 24.574 18.5472 25.0185 18.5852 25.3626Z" fill="white"/>
</g>
</g>
<path d="M48.9322 7.31169C49.8165 7.49698 50.5268 7.93169 51.0632 8.61582C51.5996 9.2857 51.8677 10.0554 51.8677 10.9248C51.8677 12.179 51.4184 13.1767 50.5196 13.9179C49.6353 14.6448 48.3959 15.0082 46.8013 15.0082H39.6908V0H46.5621C48.1132 0 49.3236 0.349194 50.1934 1.04758C51.0777 1.74597 51.5198 2.69378 51.5198 3.89101C51.5198 4.77469 51.2806 5.50871 50.8023 6.09307C50.3384 6.67744 49.715 7.08364 48.9322 7.31169ZM43.4091 6.07169H45.8445C46.4533 6.07169 46.9172 5.94342 47.2362 5.68687C47.5696 5.41607 47.7363 5.02411 47.7363 4.51101C47.7363 3.99791 47.5696 3.60596 47.2362 3.33516C46.9172 3.06435 46.4533 2.92895 45.8445 2.92895H43.4091V6.07169ZM46.1489 12.0579C46.7723 12.0579 47.2506 11.9225 47.5841 11.6517C47.932 11.3666 48.1059 10.9604 48.1059 10.4331C48.1059 9.9057 47.9247 9.49237 47.5623 9.19306C47.2144 8.89375 46.7288 8.7441 46.1054 8.7441H43.4091V12.0579H46.1489Z" fill="white"/>
<path d="M57.0983 0V8.97927C57.0983 9.87719 57.323 10.5685 57.7724 11.0531C58.2218 11.5376 58.8814 11.7799 59.7512 11.7799C60.621 11.7799 61.2878 11.5376 61.7517 11.0531C62.2156 10.5685 62.4475 9.87719 62.4475 8.97927V0H66.1658V8.95789C66.1658 10.2977 65.8759 11.4307 65.296 12.3572C64.7162 13.2836 63.9334 13.982 62.9476 14.4523C61.9764 14.9227 60.8891 15.1579 59.6859 15.1579C58.4827 15.1579 57.4028 14.9298 56.446 14.4737C55.5037 14.0034 54.7572 13.305 54.2063 12.3786C53.6554 11.4379 53.38 10.2977 53.38 8.95789V0H57.0983Z" fill="white"/>
<path d="M71.9984 12.0151H78.5653V15.0082H67.78V12.2289L74.3033 2.99309H67.78V0H78.5653V2.7793L71.9984 12.0151Z" fill="white"/>
<path d="M84.4131 12.0151H90.9799V15.0082H80.1946V12.2289L86.718 2.99309H80.1946V0H90.9799V2.7793L84.4131 12.0151Z" fill="white"/>
<path d="M45.5659 32.0001C44.4652 32.0001 43.4789 31.8245 42.6069 31.4731C41.7349 31.1217 41.0345 30.6017 40.5056 29.913C39.991 29.2244 39.7194 28.3951 39.6908 27.4254H43.5933C43.6504 27.9735 43.8434 28.3951 44.1722 28.6903C44.501 28.9714 44.9298 29.1119 45.4587 29.1119C46.0019 29.1119 46.4308 28.9925 46.7452 28.7535C47.0597 28.5006 47.217 28.1562 47.217 27.7205C47.217 27.3551 47.0883 27.0529 46.831 26.814C46.588 26.5751 46.2807 26.3783 45.909 26.2237C45.5516 26.0691 45.037 25.8934 44.3652 25.6967C43.3931 25.4015 42.5998 25.1064 41.9851 24.8112C41.3704 24.5161 40.8415 24.0804 40.3984 23.5042C39.9552 22.9279 39.7337 22.176 39.7337 21.2484C39.7337 19.871 40.2411 18.7959 41.2561 18.0229C42.271 17.2358 43.5933 16.8423 45.2229 16.8423C46.8811 16.8423 48.2176 17.2358 49.2325 18.0229C50.2475 18.7959 50.7907 19.8781 50.8621 21.2695H46.8953C46.8668 20.7916 46.6881 20.4192 46.3593 20.1521C46.0305 19.871 45.6088 19.7305 45.0942 19.7305C44.6511 19.7305 44.2937 19.85 44.0221 20.0889C43.7505 20.3138 43.6147 20.644 43.6147 21.0797C43.6147 21.5576 43.8434 21.93 44.3008 22.1971C44.7583 22.4641 45.473 22.7522 46.4451 23.0614C47.4171 23.3847 48.2033 23.6939 48.8037 23.989C49.4184 24.2842 49.9473 24.7128 50.3904 25.275C50.8335 25.8372 51.0551 26.561 51.0551 27.4465C51.0551 28.2897 50.8335 29.0557 50.3904 29.7444C49.9616 30.4331 49.3326 30.9812 48.5035 31.3888C47.6744 31.7964 46.6952 32.0001 45.5659 32.0001Z" fill="white"/>
<path d="M64.7831 21.8176C64.7831 22.6749 64.583 23.462 64.1827 24.1788C63.7825 24.8815 63.1678 25.4507 62.3387 25.8864C61.5096 26.3221 60.4804 26.5399 59.251 26.5399H56.9782V31.8526H53.3116V17.0531H59.251C60.4518 17.0531 61.4667 17.2569 62.2958 17.6645C63.1249 18.0721 63.7467 18.6342 64.1613 19.351C64.5758 20.0678 64.7831 20.89 64.7831 21.8176ZM58.9723 23.6728C59.6727 23.6728 60.1945 23.5112 60.5376 23.1879C60.8806 22.8647 61.0522 22.4079 61.0522 21.8176C61.0522 21.2273 60.8806 20.7705 60.5376 20.4473C60.1945 20.124 59.6727 19.9624 58.9723 19.9624H56.9782V23.6728H58.9723Z" fill="white"/>
<path d="M74.1984 29.2384H68.5805L67.68 31.8526H63.8418L69.2881 17.0531H73.5337L78.98 31.8526H75.0989L74.1984 29.2384ZM73.2549 26.4556L71.3895 21.0376L69.5454 26.4556H73.2549Z" fill="white"/>
<path d="M79.2051 24.4318C79.2051 22.9701 79.5267 21.67 80.17 20.5316C80.8133 19.3791 81.7067 18.4867 82.8503 17.8542C84.0081 17.2077 85.3161 16.8844 86.7742 16.8844C88.561 16.8844 90.0906 17.3482 91.3628 18.2759C92.635 19.2035 93.4856 20.4684 93.9144 22.0706H89.8833C89.5831 21.4522 89.1543 20.9814 88.5968 20.6581C88.0536 20.3348 87.4317 20.1732 86.7313 20.1732C85.602 20.1732 84.6871 20.5597 83.9867 21.3327C83.2863 22.1057 82.936 23.1387 82.936 24.4318C82.936 25.7248 83.2863 26.7578 83.9867 27.5308C84.6871 28.3038 85.602 28.6903 86.7313 28.6903C87.4317 28.6903 88.0536 28.5287 88.5968 28.2054C89.1543 27.8822 89.5831 27.4113 89.8833 26.7929H93.9144C93.4856 28.3951 92.635 29.6601 91.3628 30.5877C90.0906 31.5012 88.561 31.958 86.7742 31.958C85.3161 31.958 84.0081 31.6417 82.8503 31.0093C81.7067 30.3628 80.8133 29.4703 80.17 28.3319C79.5267 27.1935 79.2051 25.8934 79.2051 24.4318Z" fill="white"/>
<path d="M99.4465 19.9413V22.9349H104.357V25.7177H99.4465V28.9644H105V31.8526H95.7799V17.0531H105V19.9413H99.4465Z" fill="white"/>
<defs>
<linearGradient id="paint0_linear_495_1361" x1="2.65597" y1="5.42677" x2="34.8455" y2="12.4633" gradientUnits="userSpaceOnUse">
<stop stop-color="#FFEE51"/>
<stop offset="0.21148" stop-color="#FFE44E"/>
<stop offset="0.55966" stop-color="#FFCB49"/>
<stop offset="0.68698" stop-color="#FFC147"/>
<stop offset="1" stop-color="#FF7BAC"/>
</linearGradient>
<clipPath id="clip0_495_1361">
<rect width="16.055" height="28.6378" fill="white" transform="translate(5.40491 1.42822)"/>
</clipPath>
</defs>
</svg>
