<svg width="16" height="18" viewBox="0 0 16 18" fill="none" xmlns="http://www.w3.org/2000/svg">
<path d="M6.29395 15C6.29395 15.5304 6.50466 16.0391 6.87973 16.4142C7.2548 16.7893 7.76351 17 8.29395 17C8.82438 17 9.33309 16.7893 9.70816 16.4142C10.0832 16.0391 10.2939 15.5304 10.2939 15C10.2939 14.4696 10.0832 13.9609 9.70816 13.5858C9.33309 13.2107 8.82438 13 8.29395 13C7.76351 13 7.2548 13.2107 6.87973 13.5858C6.50466 13.9609 6.29395 14.4696 6.29395 15ZM1.29395 3C1.29395 3.53043 1.50466 4.03914 1.87973 4.41421C2.2548 4.78929 2.76351 5 3.29395 5C3.82438 5 4.33309 4.78929 4.70816 4.41421C5.08323 4.03914 5.29395 3.53043 5.29395 3C5.29395 2.46957 5.08323 1.96086 4.70816 1.58579C4.33309 1.21071 3.82438 1 3.29395 1C2.76351 1 2.2548 1.21071 1.87973 1.58579C1.50466 1.96086 1.29395 2.46957 1.29395 3ZM11.2939 3C11.2939 3.53043 11.5047 4.03914 11.8797 4.41421C12.2548 4.78929 12.7635 5 13.2939 5C13.8244 5 14.3331 4.78929 14.7082 4.41421C15.0832 4.03914 15.2939 3.53043 15.2939 3C15.2939 2.46957 15.0832 1.96086 14.7082 1.58579C14.3331 1.21071 13.8244 1 13.2939 1C12.7635 1 12.2548 1.21071 11.8797 1.58579C11.5047 1.96086 11.2939 2.46957 11.2939 3Z" stroke="#03DAC6" stroke-linecap="round" stroke-linejoin="round"/>
<path d="M3.29395 5V7C3.29395 7.53043 3.50466 8.03914 3.87973 8.41421C4.2548 8.78929 4.76351 9 5.29395 9H11.2939C11.8244 9 12.3331 8.78929 12.7082 8.41421C13.0832 8.03914 13.2939 7.53043 13.2939 7V5M8.29395 9V13" stroke="#03DAC6" stroke-linecap="round" stroke-linejoin="round"/>
</svg>
