<svg width="40" height="40" viewBox="0 0 40 40" fill="none" xmlns="http://www.w3.org/2000/svg">
<rect width="40" height="40" rx="20" fill="#312755"/>
<g clip-path="url(#clip0_6_2889)">
<path d="M32.4388 11.2765C32.1607 10.2234 31.2665 9.17034 29.6571 7.99802C28.3655 7.06413 26.9945 6.52765 25.9017 6.52765C25.6831 6.52765 25.4844 6.54752 25.2857 6.58726C24.789 6.68661 24.3518 7.04426 24.0737 7.58075C23.7359 8.21658 23.6564 9.07099 23.875 9.5876C23.9544 9.74656 24.0538 9.94526 24.173 10.1241C23.1199 10.7599 22.5238 10.9387 22.4443 10.9586C25.1864 11.8726 27.4714 13.7801 28.902 16.2639L28.9219 16.0254C28.9815 15.3697 29.1802 14.6147 29.4584 13.8397C29.7366 13.9192 30.0147 13.959 30.2929 13.959C31.0281 13.959 31.6639 13.6609 32.0613 13.1244C32.4587 12.5879 32.6177 11.8726 32.4388 11.2765Z" fill="#5E12A0"/>
<path d="M29.5769 13.2643C31.385 13.7611 32.1202 12.3702 31.8818 11.4363C31.6235 10.5024 30.789 9.54869 29.3186 8.47571C27.8482 7.40274 26.358 6.96561 25.4042 7.16431C24.4505 7.363 24.1723 8.8135 24.4107 9.36986C24.5101 9.58842 24.7287 9.90634 25.0267 10.264C24.6492 10.5223 24.2915 10.721 23.9935 10.8998C25.8215 11.7145 27.4111 12.9862 28.6033 14.5757C28.7424 14.0393 28.9411 13.5624 29.1199 13.1451C29.259 13.165 29.4179 13.2047 29.5769 13.2643Z" fill="url(#paint0_radial_6_2889)"/>
<path d="M19.2245 32.7373C25.3589 32.7373 30.3318 27.7645 30.3318 21.6301C30.3318 15.4956 25.3589 10.5228 19.2245 10.5228C13.0901 10.5228 8.11731 15.4956 8.11731 21.6301C8.11731 27.7645 13.0901 32.7373 19.2245 32.7373Z" fill="url(#paint1_radial_6_2889)"/>
<path d="M30.9685 10.5217C29.4584 8.93207 28.1867 8.5148 26.6567 8.17702C25.4645 7.89884 25.7824 7.22327 27.2329 7.36235C26.5375 7.12392 25.8818 7.06431 25.4049 7.16366C24.4512 7.36235 24.173 8.81285 24.4114 9.36921C24.5108 9.58777 24.7293 9.90569 25.0274 10.2633C24.4909 10.621 24.0339 10.8793 23.6564 11.078C23.8352 11.1575 24.0538 11.2568 24.3121 11.3959C24.9876 11.7536 25.7228 12.3497 25.7228 12.3497C24.6101 11.3959 24.8486 10.9588 26.3785 9.88582C26.8554 9.54804 27.7297 9.58777 28.5443 10.005C29.359 10.4223 30.3128 11.4754 30.3128 11.4754L29.3987 13.224C29.4584 13.2438 29.518 13.2637 29.5776 13.2836C30.1538 13.4425 30.6108 13.4028 30.9685 13.2637C31.3857 13.0054 32.4786 12.1311 30.9685 10.5217Z" fill="#A98698" fill-opacity="0.6"/>
<path d="M26.6362 9.13147C27.0336 9.29043 27.5502 9.56861 28.186 9.98588C28.9411 10.4826 29.5968 11.039 30.014 11.4761C29.3186 12.3901 28.8616 13.6419 28.5834 14.5162C28.7225 14.7149 28.8814 14.9136 29.0205 15.1123C29.1596 14.6155 29.3981 13.8804 29.716 13.1452C29.7955 13.165 29.8948 13.165 29.9942 13.165C30.2326 13.165 30.5108 13.1253 30.7293 12.9465C30.8883 12.8273 31.0671 12.6087 31.0473 12.2113C31.0473 11.8338 30.7492 11.3569 30.1332 10.7807C29.6961 10.3634 29.1 9.9064 28.5039 9.48913C26.7951 8.35655 25.6029 8.03863 25.0664 8.57512C24.7088 8.93278 24.7485 9.36991 24.8677 9.68783C24.2319 10.1051 23.6954 10.4031 23.3378 10.6018C23.5762 10.6813 23.7948 10.7807 24.0332 10.88C24.669 10.5422 25.5831 9.96601 26.6362 9.13147ZM30.3916 11.9729C30.4512 12.0722 30.471 12.1716 30.471 12.2312C30.471 12.41 30.4114 12.4696 30.3717 12.5093C30.2922 12.569 30.1332 12.6087 29.9942 12.6087C30.1134 12.3703 30.2525 12.1716 30.3916 11.9729ZM25.4837 9.01225C25.5433 8.95265 25.7023 8.91291 25.9606 8.95265C25.7619 9.1116 25.5632 9.25069 25.3645 9.38978C25.3446 9.25069 25.3645 9.1116 25.4837 9.01225Z" fill="#5E12A0"/>
<path d="M19.2246 9.8656C12.7272 9.8656 7.46167 15.1311 7.46167 21.6285C7.46167 28.126 12.7272 33.3915 19.2246 33.3915C25.722 33.3915 30.9875 28.126 30.9875 21.6285C30.9875 15.1311 25.7022 9.8656 19.2246 9.8656ZM19.2246 32.7358C13.0848 32.7358 8.11737 27.7683 8.11737 21.6285C8.11737 15.4888 13.0848 10.5213 19.2246 10.5213C25.3644 10.5213 30.3318 15.4888 30.3318 21.6285C30.3318 27.7683 25.3445 32.7358 19.2246 32.7358Z" fill="#5E12A0"/>
<path d="M19.2245 32.7373C25.3589 32.7373 30.3318 27.7645 30.3318 21.6301C30.3318 15.4956 25.3589 10.5228 19.2245 10.5228C13.0901 10.5228 8.11731 15.4956 8.11731 21.6301C8.11731 27.7645 13.0901 32.7373 19.2245 32.7373Z" fill="url(#paint2_linear_6_2889)"/>
<path d="M19.1452 31.3864C13.0849 30.4128 8.97187 24.7101 9.96536 18.6499C10.4025 15.9674 11.7536 13.6824 13.6612 12.0332C10.8794 13.6427 8.81292 16.4443 8.25656 19.8619C7.28294 25.9222 11.396 31.6248 17.4364 32.5985C20.8143 33.1548 24.0729 32.1017 26.4772 30.0353C24.3511 31.2672 21.768 31.8037 19.1452 31.3864Z" fill="#A98698" fill-opacity="0.6"/>
<path d="M20.9938 10.6826C18.1922 10.2256 15.47 10.8615 13.2446 12.2722C13.2048 12.312 13.1651 12.3517 13.1651 12.3517C14.0195 11.8351 15.2713 11.3781 15.2713 11.3781C12.0524 13.2458 11.0589 15.3719 11.0589 15.3719C12.3107 12.9478 15.9866 11.239 18.8677 11.1198C21.7489 11.0006 23.6365 11.855 25.9414 13.7028C28.2463 15.5706 29.6372 19.3856 29.4981 22.4058C29.3789 25.426 27.7893 27.87 27.7893 27.87C28.8821 26.4593 29.5378 25.426 29.9551 24.3729C30.0346 24.055 30.1141 23.7371 30.1538 23.3993C31.1473 17.3589 27.0541 11.6563 20.9938 10.6826Z" fill="url(#paint3_linear_6_2889)"/>
<path d="M29.7765 21.5305C29.7765 27.3523 25.0475 32.0813 19.2257 32.0813C13.4038 32.0813 8.65491 27.3523 8.65491 21.5305H29.7765Z" fill="url(#paint4_linear_6_2889)"/>
<path d="M28.9418 21.5305C28.9418 27.2132 24.4512 31.8628 18.8082 32.0813H19.2254C25.0473 32.0813 29.7763 27.3523 29.7763 21.5305H28.9418Z" fill="url(#paint5_linear_6_2889)"/>
<path d="M10.1451 21.5305H8.65491C8.65491 27.3523 13.3839 32.0813 19.2058 32.0813C19.4641 32.0813 19.7025 32.0813 19.941 32.0615C14.4768 31.6641 10.1451 27.094 10.1451 21.5305Z" fill="url(#paint6_linear_6_2889)"/>
<path d="M29.7568 21.6309C29.7568 20.4188 27.6506 19.7234 24.8489 19.485C22.8222 19.326 20.7756 19.5247 18.431 20.24C16.4043 20.8361 14.5762 20.7368 13.245 20.5778C10.2844 20.24 8.65503 20.2003 8.65503 21.6309C8.65503 23.6974 12.8674 26.2804 19.186 25.3863C22.3851 24.9293 24.0343 23.9954 25.9219 23.3596C27.9685 22.684 29.7568 22.7039 29.7568 21.6309Z" fill="url(#paint7_linear_6_2889)"/>
<path d="M25.6033 17.9531C26.0203 17.9531 26.3583 17.6151 26.3583 17.198C26.3583 16.781 26.0203 16.443 25.6033 16.443C25.1862 16.443 24.8482 16.781 24.8482 17.198C24.8482 17.6151 25.1862 17.9531 25.6033 17.9531Z" fill="white"/>
<path d="M22.6818 16.6211C23.6696 16.6211 24.4701 15.8206 24.4701 14.8328C24.4701 13.8451 23.6696 13.0446 22.6818 13.0446C21.6941 13.0446 20.8936 13.8451 20.8936 14.8328C20.8936 15.8206 21.6941 16.6211 22.6818 16.6211Z" fill="white"/>
<path d="M28.3064 13.4041H28.2666C28.1474 13.3842 28.068 13.265 28.0878 13.1259C28.2666 12.2119 29.0217 11.3376 29.0614 11.2979C29.1409 11.1986 29.2999 11.1986 29.3794 11.278C29.4787 11.3575 29.4787 11.5165 29.3992 11.596C29.3794 11.6158 28.6839 12.4305 28.525 13.2253C28.5051 13.3445 28.4057 13.4041 28.3064 13.4041Z" fill="url(#paint8_linear_6_2889)"/>
<path d="M25.9006 6.52828C27.0134 6.52828 28.3844 7.06476 29.656 7.99864C31.2655 9.17096 32.1596 10.2042 32.4378 11.2772C32.5968 11.8931 32.4577 12.5886 32.0603 13.1052C31.643 13.6417 31.0271 13.9397 30.2919 13.9397C30.0336 13.9397 29.7554 13.9 29.4573 13.8205C29.2785 14.2775 29.1394 14.7345 29.0401 15.1716C30.2521 17.0195 30.9674 19.245 30.9674 21.6293C30.9674 28.1268 25.7019 33.3923 19.2045 33.3923C12.7071 33.3923 7.46145 28.1268 7.46145 21.6293C7.46145 15.1319 12.727 9.86641 19.2244 9.86641C20.655 9.86641 22.026 10.1247 23.2977 10.6016C23.5361 10.4824 23.8342 10.3234 24.172 10.1247C24.0527 9.94589 23.9335 9.76706 23.8739 9.58823C23.6554 9.05174 23.7348 8.21721 24.0726 7.58138C24.3508 7.06476 24.7681 6.70711 25.2847 6.58789C25.4635 6.54815 25.6821 6.52828 25.9006 6.52828ZM25.9006 6.19049C25.6622 6.19049 25.4238 6.21036 25.2052 6.26997C24.6091 6.40906 24.0925 6.80646 23.7547 7.44229C23.3772 8.17747 23.2778 9.13122 23.5361 9.74719C23.5759 9.82667 23.6156 9.92602 23.6752 10.0254C23.5361 10.1048 23.397 10.1843 23.258 10.2439C21.9465 9.78693 20.5954 9.54849 19.2045 9.54849C17.5752 9.54849 15.9856 9.86641 14.4954 10.5022C13.0449 11.1182 11.7533 11.9925 10.6406 13.1052C9.52791 14.2179 8.65364 15.5094 8.03767 16.9599C7.40184 18.4502 7.08392 20.0398 7.08392 21.6691C7.08392 23.2984 7.40184 24.888 8.03767 26.3782C8.65364 27.8287 9.52791 29.1203 10.6406 30.233C11.7533 31.3457 13.0449 32.22 14.4954 32.8359C15.9856 33.4718 17.5752 33.7897 19.2045 33.7897C20.8338 33.7897 22.4234 33.4718 23.9137 32.8359C25.3642 32.22 26.6557 31.3457 27.7684 30.233C28.8811 29.1203 29.7554 27.8287 30.3714 26.3782C31.0072 24.888 31.3251 23.2984 31.3251 21.6691C31.3251 19.3443 30.6694 17.099 29.4176 15.1518C29.4772 14.8537 29.5766 14.5557 29.6759 14.2576C29.8746 14.2974 30.0932 14.3172 30.2919 14.3172C31.1264 14.3172 31.8616 13.9795 32.3385 13.3436C32.7955 12.7475 32.9743 11.913 32.7756 11.2176C32.4577 10.0651 31.5437 8.97227 29.8547 7.76021C28.5235 6.74685 27.073 6.19049 25.9006 6.19049Z" fill="white"/>
<path d="M19.9604 30.9285C20.1909 30.9285 20.3777 30.7417 20.3777 30.5112C20.3777 30.2807 20.1909 30.0939 19.9604 30.0939C19.7299 30.0939 19.5432 30.2807 19.5432 30.5112C19.5432 30.7417 19.7299 30.9285 19.9604 30.9285Z" fill="white" fill-opacity="0.2"/>
<path d="M19.722 30.7701C19.563 30.6111 19.563 30.3329 19.722 30.174C19.7418 30.1541 19.7816 30.1342 19.8015 30.1144C19.7418 30.1342 19.7021 30.174 19.6624 30.2137C19.5034 30.3727 19.5034 30.6509 19.6624 30.8098C19.8015 30.9489 20.0002 30.9688 20.179 30.8694C20.02 30.929 19.8412 30.8893 19.722 30.7701Z" fill="url(#paint9_linear_6_2889)"/>
<path d="M20.0997 30.3711C20.1437 30.3711 20.1792 30.3355 20.1792 30.2916C20.1792 30.2477 20.1437 30.2121 20.0997 30.2121C20.0558 30.2121 20.0203 30.2477 20.0203 30.2916C20.0203 30.3355 20.0558 30.3711 20.0997 30.3711Z" fill="white" fill-opacity="0.3"/>
<path d="M22.5227 30.6318C22.7532 30.6318 22.9399 30.445 22.9399 30.2145C22.9399 29.984 22.7532 29.7972 22.5227 29.7972C22.2922 29.7972 22.1054 29.984 22.1054 30.2145C22.1054 30.445 22.2922 30.6318 22.5227 30.6318Z" fill="white" fill-opacity="0.2"/>
<path d="M22.2844 30.4701C22.1254 30.3111 22.1254 30.033 22.2844 29.874C22.3042 29.8541 22.344 29.8343 22.3638 29.8144C22.3042 29.8343 22.2645 29.874 22.2247 29.9137C22.0658 30.0727 22.0658 30.3509 22.2247 30.5098C22.3638 30.6489 22.5625 30.6688 22.7414 30.5694C22.5824 30.6291 22.4036 30.5893 22.2844 30.4701Z" fill="url(#paint10_linear_6_2889)"/>
<path d="M22.6621 30.0744C22.706 30.0744 22.7415 30.0389 22.7415 29.9949C22.7415 29.951 22.706 29.9155 22.6621 29.9155C22.6181 29.9155 22.5826 29.951 22.5826 29.9949C22.5826 30.0389 22.6181 30.0744 22.6621 30.0744Z" fill="white" fill-opacity="0.3"/>
<path d="M18.4898 29.9157C18.797 29.9157 19.0461 29.6666 19.0461 29.3594C19.0461 29.0522 18.797 28.803 18.4898 28.803C18.1826 28.803 17.9334 29.0522 17.9334 29.3594C17.9334 29.6666 18.1826 29.9157 18.4898 29.9157Z" fill="white" fill-opacity="0.2"/>
<path d="M18.1717 29.7173C17.9531 29.4987 17.9531 29.141 18.1717 28.9225C18.2114 28.8827 18.2512 28.8629 18.2909 28.8231C18.2114 28.843 18.1518 28.8827 18.0922 28.9423C17.8736 29.1609 17.8736 29.5186 18.0922 29.7371C18.271 29.916 18.5492 29.9557 18.7678 29.8365C18.5691 29.916 18.3306 29.8762 18.1717 29.7173Z" fill="url(#paint11_linear_6_2889)"/>
<path d="M18.6881 29.1996C18.7539 29.1996 18.8073 29.1461 18.8073 29.0803C18.8073 29.0146 18.7539 28.9611 18.6881 28.9611C18.6224 28.9611 18.5689 29.0146 18.5689 29.0803C18.5689 29.1461 18.6224 29.1996 18.6881 29.1996Z" fill="white" fill-opacity="0.3"/>
<path d="M21.3908 29.6358C21.698 29.6358 21.9472 29.3866 21.9472 29.0794C21.9472 28.7722 21.698 28.5231 21.3908 28.5231C21.0836 28.5231 20.8345 28.7722 20.8345 29.0794C20.8345 29.3866 21.0836 29.6358 21.3908 29.6358Z" fill="white" fill-opacity="0.2"/>
<path d="M21.0728 29.4377C20.8542 29.2191 20.8542 28.8614 21.0728 28.6429C21.1126 28.6031 21.1523 28.5833 21.192 28.5435C21.1126 28.5634 21.0529 28.6031 20.9933 28.6627C20.7748 28.8813 20.7748 29.239 20.9933 29.4575C21.1722 29.6364 21.4503 29.6761 21.6689 29.5569C21.4702 29.6364 21.2318 29.5966 21.0728 29.4377Z" fill="url(#paint12_linear_6_2889)"/>
<path d="M21.5892 28.92C21.655 28.92 21.7084 28.8666 21.7084 28.8008C21.7084 28.735 21.655 28.6816 21.5892 28.6816C21.5234 28.6816 21.47 28.735 21.47 28.8008C21.47 28.8666 21.5234 28.92 21.5892 28.92Z" fill="white" fill-opacity="0.3"/>
<path d="M16.1249 29.7172C16.6298 29.7172 17.0389 29.3081 17.0389 28.8032C17.0389 28.2985 16.6298 27.8892 16.1249 27.8892C15.6202 27.8892 15.2109 28.2985 15.2109 28.8032C15.2109 29.3081 15.6202 29.7172 16.1249 29.7172Z" fill="white" fill-opacity="0.2"/>
<path d="M15.6083 29.3771C15.2507 29.0194 15.2507 28.4432 15.6083 28.0856C15.668 28.026 15.7276 27.9862 15.807 27.9465C15.6878 27.9862 15.5885 28.0657 15.4891 28.1452C15.1315 28.5028 15.1315 29.0791 15.4891 29.4367C15.7872 29.7348 16.2442 29.7944 16.6018 29.5758C16.2641 29.7149 15.8667 29.6553 15.6083 29.3771Z" fill="url(#paint13_linear_6_2889)"/>
<path d="M16.4429 28.5229C16.5526 28.5229 16.6416 28.4339 16.6416 28.3242C16.6416 28.2145 16.5526 28.1255 16.4429 28.1255C16.3332 28.1255 16.2442 28.2145 16.2442 28.3242C16.2442 28.4339 16.3332 28.5229 16.4429 28.5229Z" fill="white" fill-opacity="0.3"/>
<path d="M24.2922 27.4716C24.7971 27.4716 25.2063 27.0625 25.2063 26.5576C25.2063 26.0529 24.7971 25.6436 24.2922 25.6436C23.7876 25.6436 23.3782 26.0529 23.3782 26.5576C23.3782 27.0625 23.7876 27.4716 24.2922 27.4716Z" fill="white" fill-opacity="0.2"/>
<path d="M23.7556 27.1318C23.3979 26.7741 23.3979 26.1979 23.7556 25.8403C23.8152 25.7807 23.8748 25.7409 23.9543 25.7012C23.835 25.7409 23.7357 25.8204 23.6363 25.8999C23.2787 26.2575 23.2787 26.8338 23.6363 27.1914C23.9344 27.4895 24.3914 27.5491 24.7491 27.3305C24.4113 27.4696 24.0337 27.41 23.7556 27.1318Z" fill="url(#paint14_linear_6_2889)"/>
<path d="M24.6103 26.2773C24.7199 26.2773 24.809 26.1883 24.809 26.0786C24.809 25.9689 24.7199 25.8799 24.6103 25.8799C24.5006 25.8799 24.4116 25.9689 24.4116 26.0786C24.4116 26.1883 24.5006 26.2773 24.6103 26.2773Z" fill="white" fill-opacity="0.3"/>
</g>
<defs>
<radialGradient id="paint0_radial_6_2889" cx="0" cy="0" r="1" gradientUnits="userSpaceOnUse" gradientTransform="translate(31.5194 10.1845) scale(8.88071 8.8807)">
<stop stop-color="#FFEAFF" stop-opacity="0.6"/>
<stop offset="0.68" stop-color="#A087C9"/>
<stop offset="1" stop-color="#10002F"/>
</radialGradient>
<radialGradient id="paint1_radial_6_2889" cx="0" cy="0" r="1" gradientUnits="userSpaceOnUse" gradientTransform="translate(26.5785 13.9725) scale(21.7278 21.7278)">
<stop stop-color="#FFEAFF" stop-opacity="0.6"/>
<stop offset="0.68" stop-color="#A087C9"/>
<stop offset="1" stop-color="#10002F"/>
</radialGradient>
<linearGradient id="paint2_linear_6_2889" x1="17.4429" y1="32.5797" x2="20.9955" y2="10.6619" gradientUnits="userSpaceOnUse">
<stop stop-color="#81FFFF" stop-opacity="0.6"/>
<stop offset="0.62" stop-color="white" stop-opacity="0"/>
<stop offset="1" stop-color="white" stop-opacity="0"/>
</linearGradient>
<linearGradient id="paint3_linear_6_2889" x1="27.0531" y1="14.0876" x2="17.8685" y2="22.5148" gradientUnits="userSpaceOnUse">
<stop stop-color="white" stop-opacity="0.6"/>
<stop offset="0.29" stop-color="white" stop-opacity="0.6"/>
<stop offset="0.78" stop-color="white" stop-opacity="0"/>
<stop offset="1" stop-color="white" stop-opacity="0"/>
</linearGradient>
<linearGradient id="paint4_linear_6_2889" x1="8.66385" y1="26.7997" x2="29.7714" y2="26.7997" gradientUnits="userSpaceOnUse">
<stop stop-color="#0002E9"/>
<stop offset="1" stop-color="#FF00C7"/>
</linearGradient>
<linearGradient id="paint5_linear_6_2889" x1="30.7704" y1="22.4563" x2="19.2816" y2="33.3139" gradientUnits="userSpaceOnUse">
<stop stop-color="white" stop-opacity="0.6"/>
<stop offset="0.29" stop-color="white" stop-opacity="0.6"/>
<stop offset="0.78" stop-color="white" stop-opacity="0"/>
<stop offset="1" stop-color="white" stop-opacity="0"/>
</linearGradient>
<linearGradient id="paint6_linear_6_2889" x1="8.66385" y1="26.7997" x2="19.9563" y2="26.7997" gradientUnits="userSpaceOnUse">
<stop stop-color="#000292" stop-opacity="0.7"/>
<stop offset="1" stop-color="#7D00C7" stop-opacity="0.7"/>
</linearGradient>
<linearGradient id="paint7_linear_6_2889" x1="8.67814" y1="22.5074" x2="29.7574" y2="22.5074" gradientUnits="userSpaceOnUse">
<stop stop-color="#000292"/>
<stop offset="1" stop-color="#BE00C7"/>
</linearGradient>
<linearGradient id="paint8_linear_6_2889" x1="29.4115" y1="11.2011" x2="27.8967" y2="13.663" gradientUnits="userSpaceOnUse">
<stop stop-color="white" stop-opacity="0.6"/>
<stop offset="0.29" stop-color="white" stop-opacity="0.6"/>
<stop offset="0.78" stop-color="white" stop-opacity="0"/>
<stop offset="1" stop-color="white" stop-opacity="0"/>
</linearGradient>
<linearGradient id="paint9_linear_6_2889" x1="19.5405" y1="30.5165" x2="20.1717" y2="30.5165" gradientUnits="userSpaceOnUse">
<stop stop-color="white" stop-opacity="0.6"/>
<stop offset="0.29" stop-color="white" stop-opacity="0.6"/>
<stop offset="0.78" stop-color="white" stop-opacity="0"/>
<stop offset="1" stop-color="white" stop-opacity="0"/>
</linearGradient>
<linearGradient id="paint10_linear_6_2889" x1="22.0943" y1="30.2158" x2="22.7255" y2="30.2158" gradientUnits="userSpaceOnUse">
<stop stop-color="white" stop-opacity="0.6"/>
<stop offset="0.29" stop-color="white" stop-opacity="0.6"/>
<stop offset="0.78" stop-color="white" stop-opacity="0"/>
<stop offset="1" stop-color="white" stop-opacity="0"/>
</linearGradient>
<linearGradient id="paint11_linear_6_2889" x1="17.9277" y1="29.3767" x2="18.7684" y2="29.3767" gradientUnits="userSpaceOnUse">
<stop stop-color="white" stop-opacity="0.6"/>
<stop offset="0.29" stop-color="white" stop-opacity="0.6"/>
<stop offset="0.78" stop-color="white" stop-opacity="0"/>
<stop offset="1" stop-color="white" stop-opacity="0"/>
</linearGradient>
<linearGradient id="paint12_linear_6_2889" x1="20.8268" y1="29.0933" x2="21.6675" y2="29.0933" gradientUnits="userSpaceOnUse">
<stop stop-color="white" stop-opacity="0.6"/>
<stop offset="0.29" stop-color="white" stop-opacity="0.6"/>
<stop offset="0.78" stop-color="white" stop-opacity="0"/>
<stop offset="1" stop-color="white" stop-opacity="0"/>
</linearGradient>
<linearGradient id="paint13_linear_6_2889" x1="15.2118" y1="28.8241" x2="16.5847" y2="28.8241" gradientUnits="userSpaceOnUse">
<stop stop-color="white" stop-opacity="0.6"/>
<stop offset="0.29" stop-color="white" stop-opacity="0.6"/>
<stop offset="0.78" stop-color="white" stop-opacity="0"/>
<stop offset="1" stop-color="white" stop-opacity="0"/>
</linearGradient>
<linearGradient id="paint14_linear_6_2889" x1="23.3666" y1="26.5782" x2="24.7395" y2="26.5782" gradientUnits="userSpaceOnUse">
<stop stop-color="white" stop-opacity="0.6"/>
<stop offset="0.29" stop-color="white" stop-opacity="0.6"/>
<stop offset="0.78" stop-color="white" stop-opacity="0"/>
<stop offset="1" stop-color="white" stop-opacity="0"/>
</linearGradient>
<clipPath id="clip0_6_2889">
<rect width="27.619" height="27.619" fill="white" transform="translate(6.19049 6.19049)"/>
</clipPath>
</defs>
</svg>
