<svg width="1974" height="867" viewBox="0 0 1974 867" fill="none" xmlns="http://www.w3.org/2000/svg">
<path opacity="0.4" d="M1971.95 519.566C1966.84 577.966 1934.47 631.236 1880.23 677.564C1825.99 723.894 1749.9 763.257 1657.42 793.824C1472.45 854.957 1222 880.879 949.932 857.076C677.86 833.273 435.722 764.255 264.18 671.931C178.408 625.769 110.308 573.791 64.9359 518.746C19.5658 463.704 -3.05703 405.622 2.05225 347.223C7.16152 288.824 39.5264 235.553 93.7653 189.225C148.007 142.895 224.098 103.533 316.583 72.9659C501.55 11.8324 751.995 -14.0898 1024.07 9.71342C1296.14 33.5166 1538.28 102.534 1709.82 194.858C1795.59 241.021 1863.69 292.998 1909.06 348.043C1954.43 403.086 1977.06 461.167 1971.95 519.566Z" stroke="white"/>
</svg>
