<svg width="1440" height="867" viewBox="0 0 1440 867" fill="none" xmlns="http://www.w3.org/2000/svg">
<path opacity="0.4" d="M1704.95 519.566C1699.84 577.966 1667.47 631.236 1613.23 677.564C1558.99 723.894 1482.9 763.257 1390.42 793.824C1205.45 854.957 955.005 880.879 682.932 857.076C410.86 833.273 168.722 764.255 -2.81991 671.931C-88.5917 625.769 -156.692 573.791 -202.064 518.746C-247.434 463.704 -270.057 405.622 -264.948 347.223C-259.838 288.824 -227.474 235.553 -173.235 189.225C-118.993 142.895 -42.902 103.533 49.5828 72.9659C234.55 11.8324 484.995 -14.0898 757.067 9.71342C1029.14 33.5166 1271.28 102.534 1442.82 194.858C1528.59 241.021 1596.69 292.998 1642.06 348.043C1687.43 403.086 1710.06 461.167 1704.95 519.566Z" stroke="white"/>
</svg>
