<svg width="1370" height="602" viewBox="0 0 1370 602" fill="none" xmlns="http://www.w3.org/2000/svg">
<path opacity="0.4" d="M1368.39 360.997C1364.85 401.474 1342.42 438.409 1304.79 470.542C1267.17 502.678 1214.38 529.987 1150.21 551.196C1021.87 593.614 848.088 611.603 659.289 595.085C470.49 578.568 302.47 530.674 183.444 466.615C123.93 434.584 76.6875 398.524 45.2165 360.344C13.7474 322.166 -1.93101 281.896 1.61027 241.419C5.15156 200.942 27.5845 164.007 65.205 131.873C102.828 99.7379 155.615 72.4291 219.786 51.2198C348.128 8.80189 521.912 -9.18728 710.711 7.33052C899.51 23.8483 1067.53 71.7414 1186.56 135.801C1246.07 167.832 1293.31 203.892 1324.78 242.072C1356.25 280.25 1371.93 320.52 1368.39 360.997Z" stroke="white"/>
</svg>
