<svg width="25" height="24" viewBox="0 0 25 24" fill="none" xmlns="http://www.w3.org/2000/svg">
<path d="M12.2939 2C10.9807 2 9.68037 2.25866 8.46711 2.7612C7.25385 3.26375 6.15146 4.00035 5.22288 4.92893C3.34751 6.8043 2.29395 9.34784 2.29395 12C2.29395 16.42 5.16395 20.17 9.13395 21.5C9.63395 21.58 9.79395 21.27 9.79395 21V19.31C7.02395 19.91 6.43395 17.97 6.43395 17.97C5.97395 16.81 5.32395 16.5 5.32395 16.5C4.41395 15.88 5.39395 15.9 5.39395 15.9C6.39395 15.97 6.92395 16.93 6.92395 16.93C7.79395 18.45 9.26395 18 9.83395 17.76C9.92395 17.11 10.1839 16.67 10.4639 16.42C8.24395 16.17 5.91395 15.31 5.91395 11.5C5.91395 10.39 6.29395 9.5 6.94395 8.79C6.84395 8.54 6.49395 7.5 7.04395 6.15C7.04395 6.15 7.88395 5.88 9.79395 7.17C10.5839 6.95 11.4439 6.84 12.2939 6.84C13.1439 6.84 14.0039 6.95 14.7939 7.17C16.7039 5.88 17.5439 6.15 17.5439 6.15C18.0939 7.5 17.7439 8.54 17.6439 8.79C18.2939 9.5 18.6739 10.39 18.6739 11.5C18.6739 15.32 16.3339 16.16 14.1039 16.41C14.4639 16.72 14.7939 17.33 14.7939 18.26V21C14.7939 21.27 14.9539 21.59 15.4639 21.5C19.4339 20.16 22.2939 16.42 22.2939 12C22.2939 10.6868 22.0353 9.38642 21.5327 8.17317C21.0302 6.95991 20.2936 5.85752 19.365 4.92893C18.4364 4.00035 17.334 3.26375 16.1208 2.7612C14.9075 2.25866 13.6072 2 12.2939 2Z" fill="white"/>
</svg>
