<svg width="33" height="33" viewBox="0 0 33 33" fill="none" xmlns="http://www.w3.org/2000/svg">
<g filter="url(#filter0_b_1279_2248)">
<rect x="0.293945" y="0.5" width="32" height="32" rx="8" fill="url(#paint0_linear_1279_2248)"/>
</g>
<g clip-path="url(#clip0_1279_2248)">
<mask id="mask0_1279_2248" style="mask-type:luminance" maskUnits="userSpaceOnUse" x="3" y="3" width="27" height="26">
<path d="M3.29395 3H29.2939V29H3.29395V3Z" fill="white"/>
</mask>
<g mask="url(#mask0_1279_2248)">
<path fill-rule="evenodd" clip-rule="evenodd" d="M25.3691 18.0897C24.5777 15.8846 22.839 13.4479 20.2853 11.3736C17.7324 9.2985 14.952 8.0635 12.5722 7.69218C10.1583 7.31518 8.42848 7.84656 7.51605 8.90037C6.60361 9.95337 6.36311 11.6954 7.16586 13.9322C7.95642 16.1365 9.69517 18.574 12.2489 20.6483C14.8017 22.7226 17.5821 23.9584 19.9619 24.3289C22.3759 24.7059 24.1057 24.1746 25.0181 23.1216C25.9305 22.0686 26.171 20.3266 25.3691 18.0897ZM26.089 23.9909C28.8068 20.8547 26.613 14.7382 21.1896 10.3312C15.7637 5.92337 9.1638 4.89312 6.44517 8.02937C3.72655 11.1664 5.9203 17.2821 11.3445 21.6899C16.7688 26.0977 23.3695 27.1272 26.0874 23.9901L26.089 23.9909Z" fill="black"/>
<path fill-rule="evenodd" clip-rule="evenodd" d="M12.5732 24.3297C14.9522 23.9584 17.7326 22.7234 20.2854 20.6483C22.8391 18.574 24.5779 16.1365 25.3693 13.9322C26.1712 11.6954 25.9299 9.95335 25.0183 8.90035C24.1058 7.84735 22.376 7.31598 19.9621 7.69217C17.5823 8.06348 14.8027 9.29848 12.249 11.3728C9.69531 13.4479 7.95657 15.8846 7.166 18.0897C6.36325 20.3265 6.60375 22.0685 7.51619 23.1215C8.42863 24.1745 10.1584 24.7059 12.5724 24.3297H12.5732ZM6.44613 23.9909C9.16394 27.128 15.7655 26.0985 21.1889 21.6915C26.6132 17.2837 28.8069 11.1664 26.0883 8.02935C23.3713 4.89392 16.7689 5.92335 11.3463 10.3312C5.92125 14.7382 3.7275 20.8539 6.44613 23.9909Z" fill="black"/>
<path fill-rule="evenodd" clip-rule="evenodd" d="M22.0813 20.1177C22.3787 18.8551 22.5444 17.4714 22.5444 16.0106C22.5444 15.5271 22.5265 15.0526 22.4916 14.5879C23.0093 15.1624 23.4868 15.7718 23.9208 16.4119C23.9106 16.9378 23.8797 17.4631 23.8282 17.9866C23.3035 18.7423 22.7194 19.455 22.0813 20.1177ZM13.0024 25.3746C12.6628 25.0025 12.3362 24.567 12.0274 24.0657C11.7918 23.6838 11.5724 23.2719 11.3709 22.8323L11.3457 22.812C10.5856 22.1956 9.86962 21.5266 9.20316 20.81C9.68416 22.669 10.4357 24.2972 11.3782 25.5664C11.756 25.5542 12.1542 25.516 12.5726 25.4502C12.7148 25.4282 12.8578 25.4031 13.0032 25.3746H13.0024ZM12.5117 26.8331C13.1173 26.7516 13.7167 26.6289 14.3057 26.4658C14.954 26.8558 15.6187 27.0467 16.2678 27.0467C16.9162 27.0467 17.5817 26.8558 18.2292 26.4658C18.8402 26.634 19.4398 26.7559 20.0232 26.8331C18.9133 27.8471 17.632 28.4256 16.2678 28.4256C14.9028 28.4256 13.6215 27.8471 12.5117 26.8331ZM21.164 22.8323L21.1892 22.812C21.9491 22.1956 22.6647 21.5266 23.3309 20.81C22.8507 22.669 22.0992 24.2972 21.1567 25.5664C20.7565 25.5518 20.3577 25.513 19.9623 25.4502C19.8183 25.4278 19.6747 25.4026 19.5317 25.3746C19.8713 25.0025 20.1979 24.567 20.5075 24.0657C20.7431 23.6838 20.9625 23.2719 21.164 22.8323ZM21.749 7.34118C20.3572 5.03043 18.4153 3.59555 16.2662 3.59555C14.118 3.59555 12.1761 5.03043 10.7859 7.34118C11.2986 7.3233 11.834 7.34768 12.3849 7.4143C13.5598 5.76493 14.9459 4.97518 16.2662 4.97518C17.5873 4.97518 18.9735 5.76574 20.1483 7.4143C20.6787 7.34883 21.2133 7.32438 21.7473 7.34118H21.749ZM10.0425 14.5879C10.0067 15.0612 9.98882 15.5358 9.98884 16.0106C9.98884 17.4714 10.1554 18.8543 10.452 20.1177C9.81415 19.4549 9.23028 18.7423 8.70591 17.9866C8.65439 17.4631 8.62349 16.9378 8.61328 16.4119C9.0475 15.7718 9.52448 15.1623 10.0425 14.5879ZM10.365 12.2974C10.6462 10.9576 11.0719 9.74374 11.6041 8.70699C11.0845 8.67276 10.5628 8.69263 10.0473 8.7663C9.37134 10.2906 8.90172 12.0732 8.70916 14.0061C9.22707 13.4048 9.77998 12.8345 10.365 12.2982V12.2974ZM20.9292 8.70699C21.4487 8.67276 21.9704 8.69264 22.4859 8.7663C23.1619 10.2906 23.6315 12.0732 23.8241 14.0061C23.3062 13.4048 22.7533 12.8345 22.1682 12.2982C21.8871 10.9576 21.4613 9.74374 20.9292 8.70699Z" fill="black"/>
<path d="M15.4043 14.5456H17.1292V19.718L16.3102 18.942L15.4043 19.718V14.5456ZM16.2664 13.9419C16.0129 13.9419 15.8032 13.8582 15.6407 13.6925C15.5631 13.6107 15.5023 13.5145 15.4619 13.4092C15.4214 13.304 15.4021 13.1918 15.4051 13.079C15.4051 12.8369 15.4831 12.6322 15.6407 12.4664C15.8032 12.3007 16.0129 12.217 16.2664 12.217C16.5207 12.217 16.7262 12.3007 16.8839 12.4664C17.0472 12.6322 17.1292 12.8369 17.1292 13.079C17.1292 13.3228 17.048 13.5259 16.8839 13.6925C16.7262 13.8582 16.5207 13.9419 16.2664 13.9419Z" fill="black"/>
</g>
</g>
<defs>
<filter id="filter0_b_1279_2248" x="-127.706" y="-127.5" width="288" height="288" filterUnits="userSpaceOnUse" color-interpolation-filters="sRGB">
<feFlood flood-opacity="0" result="BackgroundImageFix"/>
<feGaussianBlur in="BackgroundImageFix" stdDeviation="64"/>
<feComposite in2="SourceAlpha" operator="in" result="effect1_backgroundBlur_1279_2248"/>
<feBlend mode="normal" in="SourceGraphic" in2="effect1_backgroundBlur_1279_2248" result="shape"/>
</filter>
<linearGradient id="paint0_linear_1279_2248" x1="3.79396" y1="35.5" x2="73.4451" y2="12.0018" gradientUnits="userSpaceOnUse">
<stop stop-color="#FFCF98"/>
<stop offset="1" stop-color="#E68A5A"/>
</linearGradient>
<clipPath id="clip0_1279_2248">
<rect width="26" height="26" fill="white" transform="translate(3.29395 3)"/>
</clipPath>
</defs>
</svg>
