<svg width="176" height="40" viewBox="0 0 176 40" fill="none" xmlns="http://www.w3.org/2000/svg">
<path d="M133.319 29.665H128.423L128.369 19.6842L123.527 27.8087H121.159L116.344 19.9532V29.665H111.421V10.8333H115.806L122.424 21.7019L128.88 10.8333H133.265L133.319 29.665Z" fill="white"/>
<path d="M151.185 29.665L149.705 26.0063H141.742L140.263 29.665H134.828L143.141 10.8333H148.387L156.727 29.665H151.185ZM143.303 22.0785H148.145L145.724 16.0524L143.303 22.0785Z" fill="white"/>
<path d="M166.846 10.8333C171.984 10.8333 175.212 13.4967 175.212 17.8011C175.212 22.0785 171.984 24.7419 166.846 24.7419H163.564V29.665H158.237V10.8333H166.846ZM166.523 20.5451C168.729 20.5451 169.832 19.5228 169.832 17.8011C169.832 16.0524 168.729 15.0301 166.523 15.0301H163.564V20.5451H166.523Z" fill="white"/>
<g clip-path="url(#clip0_490_1146)">
<path d="M111.48 2.71677C111.472 2.59013 111.437 2.457 111.416 2.32711C111.402 2.26218 111.394 2.20048 111.374 2.1323L111.296 1.91311C111.254 1.7816 111.2 1.65659 111.134 1.53644L111.053 1.40656L111.014 1.34L110.993 1.30753C110.993 1.30753 110.941 1.2296 110.926 1.21173C110.837 1.10945 110.744 1.00716 110.653 0.909755C110.458 0.729542 110.239 0.578554 110.004 0.458413C109.786 0.343137 109.559 0.252218 109.324 0.184032C109.101 0.125577 108.876 0.0801236 108.648 0.0492745C107.806 -0.0400192 106.955 -0.00755632 106.122 0.143444C105.352 0.273326 104.594 0.453537 103.849 0.680839C102.445 1.09809 101.068 1.60464 99.7284 2.19561C97.4035 3.22657 95.1338 4.37442 92.9257 5.63591C90.9466 6.75454 89.2663 7.79037 87.8976 8.6687C87.2969 9.05673 86.7579 9.40743 86.2822 9.71915C85.5759 8.8749 84.8616 8.04201 84.1375 7.23349C83.1633 6.1587 82.173 5.11313 81.1615 4.11627C80.6566 3.61621 80.1419 3.1324 79.611 2.66806C79.0817 2.19723 78.5297 1.75238 77.9566 1.33675C77.6579 1.12082 77.3445 0.924372 77.0214 0.749025C76.8396 0.651615 76.6513 0.567187 76.4581 0.500617C76.1983 0.403207 75.9207 0.367494 75.6463 0.395093C75.5473 0.408084 75.4498 0.432431 75.3573 0.469769C75.3053 0.489262 75.2566 0.513609 75.2112 0.542831L75.1397 0.58667C75.1089 0.606153 75.078 0.630509 75.0521 0.654856L74.9969 0.706811C74.9482 0.757141 74.9043 0.812345 74.8637 0.869166C74.8345 0.91138 74.8085 0.955219 74.7858 1.00067C74.7647 1.03964 74.7468 1.08023 74.7322 1.12082C74.6478 1.36272 74.6153 1.62087 74.6397 1.87577C74.6722 2.24593 74.7485 2.60962 74.8654 2.96193C75.2891 4.26077 75.8703 5.37127 76.4386 6.44931C77.0068 7.52735 77.5913 8.53558 78.1693 9.49509C78.77 10.4871 79.3545 11.4255 79.9211 12.312C79.2278 12.8169 79.0752 13.7861 79.5802 14.4794L79.5412 14.5086L79.6078 14.5167C80.0802 15.1288 80.9326 15.2993 81.6063 14.9161C82.5318 16.3189 83.3517 17.543 84.0417 18.5545C84.7771 19.6277 85.3567 20.4703 85.7513 21.045L86.365 21.9218L85.7594 21.0402C85.3681 20.4622 84.7853 19.6212 84.0806 18.5285C83.4166 17.4992 82.6194 16.2556 81.7671 14.809C82.4571 14.2992 82.6032 13.3267 82.0934 12.6367C82.0918 12.635 82.0918 12.6334 82.0918 12.6334L82.5788 12.2827L83.665 11.5067L82.5724 12.2746L82.0853 12.6221C81.7914 12.234 81.332 12.0051 80.8449 12.0051C80.6338 12.0035 80.426 12.0473 80.2344 12.1301C79.7263 11.2112 79.2084 10.2371 78.6953 9.20772C78.1969 8.20925 77.692 7.1653 77.2228 6.06941C76.7535 4.97351 76.3038 3.81429 76.0424 2.64696C75.9807 2.38394 75.9483 2.11605 75.9466 1.84655C76.0587 1.90012 76.1674 1.96181 76.2714 2.03325C76.5198 2.20048 76.7568 2.38394 76.9825 2.58201C77.9355 3.4084 78.8366 4.42312 79.7425 5.44921C80.6484 6.47529 81.5284 7.57606 82.3905 8.69631C83.0107 9.4821 83.6212 10.289 84.2332 11.1024L83.6553 11.5018L84.2365 11.1057L85.0028 12.1252C86.7303 14.4615 88.461 16.8514 90.1478 19.2802C90.2095 19.3663 90.2696 19.4556 90.3313 19.5416C89.7095 20.5937 89.5666 21.8601 89.9368 23.0241C89.315 23.4495 88.6899 23.8668 88.0616 24.2775C87.62 23.6736 87.2612 23.1686 86.9868 22.7887L86.3666 21.9153L86.9771 22.792L88.0405 24.2889C86.0159 25.6137 83.967 26.8655 81.8921 28.0442C80.3221 28.9241 78.7489 29.7635 77.1611 30.5201C75.6106 31.2783 74.0179 31.9407 72.3878 32.5041C71.6036 32.7719 70.8065 32.9992 69.9996 33.1827C69.2381 33.3629 68.4588 33.4571 67.6779 33.4636C66.9359 33.4636 66.2492 33.3012 65.8693 32.9294C65.8368 32.9002 65.8059 32.8677 65.7783 32.8353L65.7654 32.8223L65.7475 32.806L65.7183 32.7573C65.353 32.2703 64.5737 30.6467 66.3352 26.9905C65.9358 27.5311 65.5689 28.0961 65.2377 28.6806C64.8107 29.4079 64.4892 30.1921 64.2814 31.0104C64.2327 31.2344 64.197 31.4617 64.1759 31.6907C64.158 31.9358 64.1662 32.1826 64.2002 32.4261C64.2343 32.707 64.3106 32.9798 64.4259 33.2379L64.5623 33.5058L64.5655 33.5107C64.5769 33.5318 64.6175 33.6 64.6224 33.6016L64.6548 33.6422L64.7182 33.725L64.8497 33.8873C65.2117 34.2786 65.6631 34.5741 66.168 34.7494C66.6242 34.9085 67.0999 35.0076 67.5821 35.0449C68.4929 35.1099 69.4086 35.0709 70.3113 34.9296C71.201 34.8014 72.081 34.6147 72.9479 34.3744C74.6949 33.8922 76.411 33.3028 78.0865 32.6096C79.7717 31.9082 81.4472 31.1305 83.0935 30.2733C85.3113 29.1368 87.4901 27.8558 89.6153 26.4953C90.1771 27.2681 90.8038 28.1188 91.4938 29.0556C92.5783 30.5168 93.8155 32.1404 95.215 33.8938C95.9179 34.7657 96.6664 35.6635 97.4782 36.5678C98.29 37.4721 99.1391 38.3975 100.212 39.2434C100.501 39.474 100.816 39.6688 101.152 39.8279C101.383 39.9367 101.634 39.9967 101.891 40C102.089 40 102.282 39.9464 102.454 39.8458C102.492 39.8214 102.529 39.7954 102.565 39.7678L102.589 39.75C102.62 39.7272 102.648 39.6996 102.675 39.672C102.722 39.6217 102.764 39.5665 102.803 39.5097C102.829 39.4691 102.854 39.4285 102.875 39.3879C102.995 39.1395 103.057 38.8668 103.055 38.5908C103.058 38.3846 103.045 38.18 103.016 37.9771C102.963 37.6118 102.886 37.2513 102.787 36.8974C102.383 35.5401 101.88 34.2153 101.282 32.9327C100.066 30.296 98.7105 27.7243 97.2233 25.2306C97.147 25.1007 97.0609 24.9724 96.9895 24.8441C98.2185 23.6914 98.6569 21.925 98.1097 20.3307C99.256 19.3939 100.371 18.4279 101.456 17.4326C104.188 14.921 106.715 12.2503 108.798 9.31488C109.32 8.58428 109.798 7.82121 110.225 7.03054C110.67 6.23338 111.02 5.38751 111.273 4.51079C111.402 4.04483 111.473 3.56588 111.483 3.08369L111.48 2.71677ZM97.4165 30.2035C98.1698 31.4065 98.8907 32.6096 99.5531 33.8094C100.215 35.0092 100.852 36.2058 101.297 37.3812C101.404 37.6605 101.495 37.9478 101.566 38.2384C101.597 38.3602 101.618 38.4852 101.63 38.6119V38.6297C101.373 38.5323 101.128 38.4089 100.901 38.2579C99.894 37.6085 98.9621 36.7756 98.0919 35.9687C97.2217 35.1618 96.4196 34.3176 95.6566 33.509C94.1288 31.8855 92.8024 30.3317 91.6561 28.929C90.9239 28.0361 90.2696 27.2048 89.6884 26.4482C90.3118 26.0488 90.9304 25.6429 91.5441 25.2289C92.2714 25.7501 93.1433 26.031 94.0395 26.031C94.2587 26.0293 94.4795 26.0099 94.697 25.9741C94.8285 26.1722 94.9617 26.3703 95.0916 26.5684C95.8936 27.786 96.6664 28.9972 97.4165 30.2035ZM110.018 3.05122C109.981 3.40029 109.902 3.74448 109.781 4.07406C109.507 4.80953 109.15 5.51091 108.72 6.16682C108.268 6.8617 107.781 7.53222 107.258 8.17515C106.167 9.51133 104.995 10.7793 103.752 11.9743C102.492 13.2 101.165 14.3933 99.795 15.5607C98.7332 16.4618 97.6454 17.3482 96.5316 18.2201C95.327 17.3644 93.7684 17.1859 92.403 17.7476L92.3851 17.7216C90.6658 15.2733 88.8717 12.864 86.9965 10.578C86.766 10.2939 86.529 10.0179 86.2952 9.73863C86.7822 9.42691 87.3164 9.08921 87.9187 8.71092C89.3052 7.86343 91.0035 6.85845 93.0118 5.81937C94.0119 5.29497 95.0964 4.77218 96.2475 4.24778C97.3986 3.72337 98.6325 3.2152 99.9346 2.74437C101.279 2.24756 102.652 1.83681 104.05 1.51372C104.774 1.34812 105.51 1.23284 106.252 1.16466C106.981 1.08673 107.718 1.10945 108.44 1.23609C108.604 1.27181 108.767 1.31727 108.927 1.37409C109.082 1.42605 109.229 1.49586 109.369 1.58028C109.488 1.65497 109.598 1.74589 109.694 1.84979C109.729 1.90174 109.767 1.9537 109.809 2.0024V2.01214L109.845 2.07872L109.915 2.21671C109.981 2.32387 109.955 2.3531 109.973 2.40829C109.973 2.43265 109.986 2.45701 109.994 2.48135C110.002 2.50571 109.994 2.55279 110.005 2.58851C110.005 2.66481 110.028 2.733 110.025 2.81256L110.018 3.05122Z" fill="url(#paint0_linear_490_1146)"/>
</g>
<path d="M0 29.2957V10.8333H8.73137C14.8512 10.8333 19.0455 14.394 19.0455 20.0645C19.0455 25.7351 14.8512 29.2957 8.73137 29.2957H0ZM5.22299 25.1285H8.52034C11.6594 25.1285 13.7697 23.2559 13.7697 20.0645C13.7697 16.8732 11.6594 15.0006 8.52034 15.0006H5.22299V25.1285Z" fill="white"/>
<path d="M26.022 25.2604H35.6767V29.2957H20.8518V10.8333H35.3337V14.8687H26.022V17.9809H34.2258V21.8844H26.022V25.2604Z" fill="white"/>
<path d="M52.5038 10.8333H57.6741L49.7604 29.2957H44.6166L36.7293 10.8333H42.3744L47.3864 22.8603L52.5038 10.8333Z" fill="white"/>
<path d="M68.1817 18.2183C71.2944 18.8777 72.9299 20.8822 72.9299 23.5197C72.9299 26.6583 70.4502 29.665 64.8843 29.665C62.3256 29.665 59.6086 29.032 57.7093 27.8451L59.6086 23.9153C61.0858 24.9175 62.9851 25.445 64.7261 25.445C66.4934 25.445 67.6541 24.7593 67.6541 23.5197C67.6541 22.4119 66.8364 21.7262 64.8316 21.7262H62.6421V18.4293L65.9395 14.8687H58.6589V10.8333H72.0066V14.1038L68.1817 18.2183Z" fill="white"/>
<defs>
<linearGradient id="paint0_linear_490_1146" x1="87.8248" y1="0" x2="87.8248" y2="40" gradientUnits="userSpaceOnUse">
<stop stop-color="#BB86FC"/>
<stop offset="1" stop-color="#794FAD"/>
</linearGradient>
<clipPath id="clip0_490_1146">
<rect width="47.3162" height="40" fill="white" transform="translate(64.1667)"/>
</clipPath>
</defs>
</svg>
