<svg width="138" height="24" viewBox="0 0 138 24" fill="none" xmlns="http://www.w3.org/2000/svg">
<path d="M2.4647 4.62131C1.0475 4.62131 0 3.60462 0 2.31065C0 1.01669 1.0475 0 2.4647 0C3.8819 0 4.9294 0.955069 4.9294 2.21823C4.9294 3.57381 3.91271 4.62131 2.4647 4.62131ZM0.523748 23.7843V7.33248H4.37484V23.7843H0.523748Z" fill="white"/>
<path d="M18.5488 7.14762C23.3549 7.14762 26.8979 10.4442 26.8979 15.5584C26.8979 20.6727 23.3549 24 18.5488 24C16.2997 24 14.3896 23.2298 13.0956 21.6585V23.7843H9.4294V0.924261H13.2805V9.33504C14.6053 7.85623 16.4538 7.14762 18.5488 7.14762ZM18.1175 20.7035C20.8902 20.7035 22.9852 18.7009 22.9852 15.5584C22.9852 12.4159 20.8902 10.4134 18.1175 10.4134C15.3447 10.4134 13.2189 12.4159 13.2189 15.5584C13.2189 18.7009 15.3447 20.7035 18.1175 20.7035Z" fill="white"/>
<path d="M38.0984 24C32.8917 24 29.1946 20.4878 29.1946 15.5584C29.1946 10.629 32.8917 7.14762 38.0984 7.14762C41.3025 7.14762 43.8596 8.4724 45.1227 10.9679L42.1651 12.6932C41.1792 11.122 39.7004 10.4134 38.0676 10.4134C35.2331 10.4134 33.0765 12.3851 33.0765 15.5584C33.0765 18.7625 35.2331 20.7035 38.0676 20.7035C39.7004 20.7035 41.1792 19.9949 42.1651 18.4236L45.1227 20.1489C43.8596 22.6136 41.3025 24 38.0984 24Z" fill="white"/>
<path d="M48.8215 23.7843V2.21823H52.8266V20.3954H64.1026V23.7843H48.8215Z" fill="white"/>
<path d="M73.3303 7.14762C78.0749 7.14762 80.8168 9.39666 80.8168 14.1412V23.7843H77.1814V21.7818C76.2571 23.199 74.4702 24 72.0055 24C68.2469 24 65.8746 21.9358 65.8746 19.0706C65.8746 16.3286 67.7231 14.172 72.7141 14.172H76.9657V13.9255C76.9657 11.6765 75.6101 10.3517 72.8682 10.3517C71.0196 10.3517 69.1095 10.9679 67.8772 11.9846L66.3675 9.181C68.1236 7.82542 70.6808 7.14762 73.3303 7.14762ZM72.8066 21.1964C74.6859 21.1964 76.3188 20.3338 76.9657 18.6393V16.7291H72.9914C70.3727 16.7291 69.6641 17.715 69.6641 18.9166C69.6641 20.303 70.8348 21.1964 72.8066 21.1964Z" fill="white"/>
<path d="M94.8786 7.14762C99.6848 7.14762 103.228 10.4442 103.228 15.5584C103.228 20.6727 99.6848 24 94.8786 24C92.6296 24 90.7194 23.2298 89.4255 21.6585V23.7843H85.7592V0.924261H89.6103V9.33504C90.9351 7.85623 92.7836 7.14762 94.8786 7.14762ZM94.4473 20.7035C97.2201 20.7035 99.3151 18.7009 99.3151 15.5584C99.3151 12.4159 97.2201 10.4134 94.4473 10.4134C91.6745 10.4134 89.5487 12.4159 89.5487 15.5584C89.5487 18.7009 91.6745 20.7035 94.4473 20.7035Z" fill="white"/>
<path d="M107.619 23.9384C106.726 23.9384 105.987 23.199 105.987 22.2439C105.987 21.2888 106.726 20.5802 107.619 20.5802C108.513 20.5802 109.283 21.2888 109.283 22.2439C109.283 23.199 108.513 23.9384 107.619 23.9384Z" fill="white"/>
<path d="M115.042 4.03594C114.148 4.03594 113.44 3.32734 113.44 2.4647C113.44 1.63286 114.148 0.924261 115.042 0.924261C115.935 0.924261 116.644 1.60205 116.644 2.43389C116.644 3.32734 115.966 4.03594 115.042 4.03594ZM113.933 23.7843V7.57895H116.12V23.7843H113.933Z" fill="white"/>
<path d="M128.83 23.9384C124.086 23.9384 120.574 20.4878 120.574 15.6816C120.574 10.8755 124.086 7.45571 128.83 7.45571C133.575 7.45571 137.056 10.8755 137.056 15.6816C137.056 20.4878 133.575 23.9384 128.83 23.9384ZM128.83 21.9974C132.281 21.9974 134.838 19.4711 134.838 15.6816C134.838 11.8922 132.281 9.36585 128.83 9.36585C125.38 9.36585 122.792 11.8922 122.792 15.6816C122.792 19.4711 125.38 21.9974 128.83 21.9974Z" fill="white"/>
</svg>
