<svg width="146" height="40" viewBox="0 0 146 40" fill="none" xmlns="http://www.w3.org/2000/svg">
<path d="M110.333 26.3689H106.281L106.236 17.4971L102.229 24.7189H100.27L96.2845 17.7362V26.3689H92.2101V9.62964H95.8392L101.316 19.2906L106.659 9.62964H110.289L110.333 26.3689Z" fill="white"/>
<path d="M125.119 26.3689L123.894 23.1167H117.304L116.079 26.3689H111.582L118.462 9.62964H122.803L129.705 26.3689H125.119ZM118.595 19.6254H122.603L120.599 14.2688L118.595 19.6254Z" fill="white"/>
<path d="M138.079 9.62964C142.332 9.62964 145.003 11.997 145.003 15.8232C145.003 19.6254 142.332 21.9928 138.079 21.9928H135.363V26.3689H130.955V9.62964H138.079ZM137.812 18.2623C139.638 18.2623 140.551 17.3536 140.551 15.8232C140.551 14.2688 139.638 13.3601 137.812 13.3601H135.363V18.2623H137.812Z" fill="white"/>
<g clip-path="url(#clip0_490_1146)">
<path d="M92.259 2.41491C92.2523 2.30234 92.2241 2.184 92.2066 2.06855C92.1945 2.01083 92.1878 1.95598 92.1717 1.89537L92.1072 1.70054C92.0723 1.58365 92.0279 1.47252 91.9729 1.36573L91.9057 1.25028L91.8734 1.19111L91.856 1.16225C91.856 1.16225 91.813 1.09298 91.8009 1.0771C91.727 0.986178 91.6504 0.895258 91.5751 0.808671C91.4139 0.648482 91.2325 0.51427 91.0377 0.407478C90.8576 0.305011 90.6695 0.224194 90.4747 0.163584C90.2906 0.111624 90.1039 0.071221 89.9158 0.0437995C89.2184 -0.0355726 88.5144 -0.00671673 87.8251 0.127506C87.1882 0.242957 86.5607 0.403144 85.944 0.60519C84.7817 0.976083 83.6424 1.42635 82.5339 1.95165C80.6098 2.86806 78.7314 3.88837 76.9041 5.0097C75.2662 6.00404 73.8755 6.92477 72.7428 7.70551C72.2457 8.05043 71.7996 8.36216 71.4059 8.63924C70.8215 7.8888 70.2303 7.14846 69.631 6.42977C68.8248 5.4744 68.0052 4.54501 67.1681 3.65891C66.7502 3.21441 66.3243 2.78435 65.885 2.37161C65.4469 1.95309 64.9901 1.55767 64.5158 1.18822C64.2686 0.99628 64.0093 0.821664 63.7419 0.6658C63.5914 0.579214 63.4355 0.504167 63.2756 0.444993C63.0606 0.358406 62.8309 0.326661 62.6038 0.351193C62.5219 0.362742 62.4412 0.384383 62.3647 0.417573C62.3217 0.434899 62.2813 0.456541 62.2437 0.482516L62.1846 0.521484C62.1591 0.538802 62.1335 0.560453 62.112 0.582094L62.0664 0.628277C62.0261 0.673014 61.9898 0.722085 61.9562 0.772592C61.932 0.810116 61.9105 0.849084 61.8917 0.889488C61.8742 0.924122 61.8594 0.960201 61.8473 0.99628C61.7775 1.21131 61.7506 1.44078 61.7708 1.66735C61.7976 1.99639 61.8608 2.31966 61.9575 2.63282C62.3082 3.78735 62.7892 4.77446 63.2595 5.73272C63.7298 6.69098 64.2135 7.58718 64.6918 8.44008C65.189 9.32185 65.6727 10.156 66.1416 10.944C65.5679 11.3928 65.4416 12.2543 65.8594 12.8706L65.8272 12.8966L65.8823 12.9038C66.2733 13.4478 66.9787 13.5994 67.5363 13.2588C68.3021 14.5057 68.9807 15.5938 69.5517 16.4929C70.1604 17.4468 70.6401 18.1958 70.9666 18.7067L71.4745 19.486L70.9733 18.7024C70.6495 18.1886 70.1671 17.4411 69.584 16.4698C69.0344 15.5548 68.3747 14.4494 67.6693 13.1635C68.2403 12.7104 68.3613 11.8459 67.9394 11.2326C67.938 11.2312 67.938 11.2297 67.938 11.2297L68.3411 10.918L69.24 10.2282L68.3357 10.9108L67.9326 11.2196C67.6894 10.8747 67.3092 10.6712 66.9061 10.6712C66.7314 10.6698 66.5595 10.7087 66.4009 10.7823C65.9804 9.9655 65.5517 9.09961 65.1271 8.18464C64.7147 7.29711 64.2968 6.36916 63.9085 5.39503C63.5202 4.4209 63.148 3.39048 62.9317 2.35285C62.8806 2.11906 62.8537 1.88094 62.8524 1.64138C62.9451 1.68899 63.0351 1.74383 63.1211 1.80733C63.3267 1.95598 63.5229 2.11906 63.7096 2.29512C64.4983 3.02969 65.244 3.93166 65.9938 4.84374C66.7435 5.75582 67.4718 6.73427 68.1852 7.73005C68.6985 8.42854 69.2037 9.14579 69.7103 9.86881L69.2319 10.2238L69.713 9.87169L70.3471 10.778C71.7768 12.8547 73.2091 14.979 74.6051 17.138C74.6562 17.2145 74.7059 17.2938 74.7569 17.3703C74.2423 18.3055 74.1241 19.4312 74.4304 20.4659C73.9158 20.844 73.3985 21.2149 72.8785 21.58C72.5131 21.0432 72.2161 20.5943 71.9891 20.2567L71.4758 19.4802L71.981 20.2595L72.8611 21.5901C71.1856 22.7677 69.4899 23.8804 67.7728 24.9282C66.4735 25.7103 65.1715 26.4564 63.8574 27.129C62.5743 27.8029 61.2562 28.3917 59.9071 28.8925C59.2582 29.1306 58.5985 29.3327 57.9307 29.4957C57.3005 29.6559 56.6556 29.7396 56.0093 29.7454C55.3952 29.7454 54.8269 29.6011 54.5125 29.2706C54.4856 29.2446 54.4601 29.2158 54.4372 29.1869L54.4265 29.1754L54.4117 29.1609L54.3875 29.1176C54.0852 28.6847 53.4403 27.2415 54.8981 23.9915C54.5676 24.4721 54.2639 24.9743 53.9898 25.4939C53.6364 26.1404 53.3704 26.8374 53.1984 27.5648C53.1581 27.7639 53.1285 27.966 53.1111 28.1695C53.0963 28.3874 53.103 28.6068 53.1312 28.8232C53.1594 29.0729 53.2226 29.3153 53.318 29.5448L53.4309 29.7829L53.4335 29.7873C53.443 29.806 53.4765 29.8666 53.4806 29.8681L53.5074 29.9042L53.5598 29.9778L53.6687 30.1221C53.9683 30.4699 54.3418 30.7325 54.7597 30.8884C55.1373 31.0298 55.5309 31.1178 55.93 31.151C56.6838 31.2088 57.4416 31.1741 58.1886 31.0486C58.925 30.9346 59.6532 30.7686 60.3707 30.555C61.8164 30.1264 63.2367 29.6025 64.6233 28.9863C66.018 28.3629 67.4046 27.6716 68.767 26.9096C70.6024 25.8994 72.4056 24.7607 74.1644 23.5514C74.6293 24.2383 75.1479 24.9945 75.719 25.8272C76.6165 27.1261 77.6404 28.5692 78.7986 30.1278C79.3804 30.9028 79.9998 31.7009 80.6716 32.5047C81.3434 33.3086 82.0461 34.1312 82.9343 34.883C83.1734 35.088 83.4341 35.2612 83.7122 35.4026C83.903 35.4993 84.1113 35.5527 84.3236 35.5556C84.4875 35.5556 84.6474 35.5079 84.7898 35.4185C84.8207 35.3968 84.8516 35.3737 84.8812 35.3492L84.9013 35.3333C84.9269 35.3131 84.9497 35.2886 84.9725 35.264C85.0115 35.2193 85.0464 35.1702 85.0787 35.1197C85.1002 35.0836 85.1203 35.0476 85.1378 35.0115C85.2372 34.7907 85.2883 34.5482 85.2869 34.3029C85.2896 34.1196 85.2789 33.9378 85.2547 33.7574C85.2104 33.4327 85.1472 33.1123 85.0653 32.7977C84.7307 31.5912 84.3142 30.4136 83.8197 29.2735C82.8133 26.9298 81.6914 24.6438 80.4606 22.4272C80.3975 22.3117 80.3263 22.1977 80.2672 22.0837C81.2843 21.059 81.6471 19.4889 81.1943 18.0717C82.1429 17.239 83.0659 16.3803 83.9635 15.4957C86.2248 13.2631 88.3155 10.8891 90.0394 8.2799C90.472 7.63048 90.867 6.95219 91.2204 6.24937C91.5886 5.54078 91.8788 4.7889 92.0884 4.00959C92.1945 3.59541 92.2537 3.16967 92.2617 2.74106L92.259 2.41491ZM80.6205 26.8475C81.244 27.9169 81.8405 28.9863 82.3887 30.0528C82.9369 31.1193 83.4636 32.1829 83.8318 33.2277C83.9205 33.476 83.9957 33.7314 84.0548 33.9897C84.0804 34.098 84.0978 34.2091 84.1072 34.3217V34.3375C83.895 34.2509 83.6921 34.1413 83.504 34.007C82.6709 33.4298 81.8997 32.6894 81.1795 31.9722C80.4593 31.2549 79.7955 30.5045 79.164 29.7858C77.8997 28.3427 76.8019 26.9616 75.8533 25.7147C75.2474 24.9209 74.7059 24.182 74.2249 23.5095C74.7408 23.1545 75.2527 22.7937 75.7606 22.4257C76.3626 22.889 77.0841 23.1386 77.8258 23.1386C78.0072 23.1372 78.1899 23.1199 78.37 23.0881C78.4788 23.2642 78.589 23.4403 78.6965 23.6163C79.3602 24.6987 79.9998 25.7753 80.6205 26.8475ZM91.0498 2.7122C91.0189 3.02248 90.953 3.32843 90.8536 3.62138C90.6265 4.27514 90.3309 4.89858 89.9749 5.48161C89.6013 6.09929 89.1982 6.6953 88.7656 7.2668C87.8627 8.45451 86.8926 9.58162 85.8634 10.6438C84.8207 11.7334 83.723 12.7941 82.5889 13.8317C81.7102 14.6327 80.81 15.4206 79.8882 16.1956C78.8913 15.4351 77.6014 15.2763 76.4714 15.7756L76.4566 15.7526C75.0337 13.5763 73.549 11.4346 71.9971 9.40267C71.8063 9.15012 71.6102 8.90478 71.4167 8.65656C71.8198 8.37948 72.2618 8.0793 72.7603 7.74304C73.9078 6.98972 75.3132 6.0964 76.9753 5.17278C77.8029 4.70664 78.7005 4.24194 79.6531 3.7758C80.6057 3.30967 81.6269 2.85796 82.7045 2.43944C83.817 1.99783 84.9537 1.63272 86.1106 1.34553C86.7099 1.19833 87.3185 1.09586 87.9326 1.03525C88.5358 0.965981 89.1459 0.986178 89.7438 1.09875C89.8795 1.13049 90.0138 1.17091 90.1469 1.22141C90.2745 1.2676 90.3968 1.32965 90.5123 1.4047C90.6104 1.47109 90.7018 1.5519 90.781 1.64426C90.8106 1.69044 90.8415 1.73662 90.8764 1.77991V1.78857L90.906 1.84775L90.9638 1.97041C91.0189 2.06567 90.9974 2.09164 91.0121 2.1407C91.0121 2.16235 91.0229 2.18401 91.0296 2.20565C91.0363 2.2273 91.0296 2.26915 91.039 2.3009C91.039 2.36872 91.0578 2.42933 91.0551 2.50006L91.0498 2.7122Z" fill="url(#paint0_linear_490_1146)"/>
</g>
<path d="M0 26.0407V9.62964H7.22596C12.2907 9.62964 15.7618 12.7946 15.7618 17.8352C15.7618 22.8757 12.2907 26.0407 7.22596 26.0407H0ZM4.32248 22.3365H7.05132C9.64917 22.3365 11.3956 20.6719 11.3956 17.8352C11.3956 14.9984 9.64917 13.3338 7.05132 13.3338H4.32248V22.3365Z" fill="white"/>
<path d="M21.5355 22.4537H29.5255V26.0407H17.2567V9.62964H29.2417V13.2166H21.5355V15.983H28.3248V19.4528H21.5355V22.4537Z" fill="white"/>
<path d="M43.4515 9.62964H47.7303L41.1811 26.0407H36.9241L30.3967 9.62964H35.0685L39.2163 20.3202L43.4515 9.62964Z" fill="white"/>
<path d="M56.4262 16.194C59.0022 16.7802 60.3557 18.5619 60.3557 20.9064C60.3557 23.6962 58.3037 26.3689 53.6974 26.3689C51.5798 26.3689 49.3312 25.8062 47.7594 24.7512L49.3312 21.258C50.5538 22.1489 52.1256 22.6178 53.5664 22.6178C55.029 22.6178 55.9896 22.0082 55.9896 20.9064C55.9896 19.9217 55.3129 19.3121 53.6537 19.3121H51.8418V16.3816L54.5706 13.2166H48.5453V9.62964H59.5917V12.5367L56.4262 16.194Z" fill="white"/>
<g opacity="0.8">
<path d="M5.56847 35.3905C6.50246 35.6698 7.11724 36.4191 7.11724 37.6C7.11724 39.1238 6.04138 40 3.94877 40H0V31.1111H3.71232C5.61576 31.1111 6.6798 31.9746 6.6798 33.4095C6.6798 34.3746 6.21872 35.0476 5.56847 35.3905ZM3.60591 32.1397H1.18227V34.9841H3.60591C4.81182 34.9841 5.49754 34.5016 5.49754 33.5619C5.49754 32.6222 4.81182 32.1397 3.60591 32.1397ZM3.90148 38.9714C5.21379 38.9714 5.92315 38.527 5.92315 37.4984C5.92315 36.4698 5.21379 36.0127 3.90148 36.0127H1.18227V38.9714H3.90148Z" fill="white"/>
<path d="M10.1301 38.8952H14.9537V40H8.94781V31.1111H14.7882V32.2159H10.1301V34.946H14.2798V36.0254H10.1301V38.8952Z" fill="white"/>
<path d="M18.5114 40V32.2159H15.674V31.1111H22.5193V32.2159H19.6819V40H18.5114Z" fill="white"/>
<path d="M29.5746 40L28.6642 37.7778H24.2662L23.3558 40H22.1381L25.8859 31.1111H27.0563L30.8159 40H29.5746ZM24.68 36.7619H28.2504L26.4652 32.4064L24.68 36.7619Z" fill="white"/>
</g>
<defs>
<linearGradient id="paint0_linear_490_1146" x1="72.6826" y1="0" x2="72.6826" y2="35.5556" gradientUnits="userSpaceOnUse">
<stop stop-color="#BB86FC"/>
<stop offset="1" stop-color="#794FAD"/>
</linearGradient>
<clipPath id="clip0_490_1146">
<rect width="39.1583" height="35.5556" fill="white" transform="translate(53.1035)"/>
</clipPath>
</defs>
</svg>
