<svg width="25" height="24" viewBox="0 0 25 24" fill="none" xmlns="http://www.w3.org/2000/svg">
<path d="M11.789 2.7139C11.9956 2.29536 12.5924 2.29536 12.799 2.7139L15.473 8.13203C15.555 8.29823 15.7136 8.41343 15.897 8.44008L21.8763 9.30892C22.3382 9.37604 22.5226 9.94366 22.1884 10.2695L17.8617 14.4869C17.729 14.6162 17.6684 14.8026 17.6998 14.9853L18.7212 20.9404C18.8001 21.4004 18.3172 21.7513 17.9041 21.5341L12.5561 18.7224C12.392 18.6362 12.196 18.6362 12.032 18.7224L6.68396 21.5341C6.27083 21.7513 5.78798 21.4004 5.86688 20.9404L6.88826 14.9853C6.9196 14.8026 6.85903 14.6162 6.72631 14.4869L2.39968 10.2695C2.06545 9.94366 2.24988 9.37604 2.71177 9.30892L8.69103 8.44008C8.87445 8.41343 9.03301 8.29823 9.11503 8.13203L11.789 2.7139Z" fill="#BB86FC"/>
</svg>
