<svg width="16" height="17" viewBox="0 0 16 17" fill="none" xmlns="http://www.w3.org/2000/svg">
<path d="M8 10.5C7.46957 10.5 6.96086 10.2893 6.58579 9.91421C6.21071 9.53914 6 9.03043 6 8.5C6 7.96957 6.21071 7.46086 6.58579 7.08579C6.96086 6.71071 7.46957 6.5 8 6.5M8 10.5C8.53043 10.5 9.03914 10.2893 9.41421 9.91421C9.78929 9.53914 10 9.03043 10 8.5C10 7.96957 9.78929 7.46086 9.41421 7.08579C9.03914 6.71071 8.53043 6.5 8 6.5M8 10.5V14.5M8 6.5V2.5" stroke="#1E1E1E" stroke-linecap="round" stroke-linejoin="round"/>
</svg>
