<svg width="64" height="64" viewBox="0 0 64 64" fill="none" xmlns="http://www.w3.org/2000/svg">
<path d="M13.7148 61.7143V25.1429C13.7148 20.2932 15.6414 15.6421 19.0706 12.2129C22.4998 8.78367 27.1509 6.85715 32.0006 6.85715C36.8502 6.85715 41.5013 8.78367 44.9305 12.2129C48.3597 15.6421 50.2863 20.2932 50.2863 25.1429V61.7143M13.7148 50.2857H50.2863" stroke="#1E1E1E" stroke-linecap="round" stroke-linejoin="round"/>
<path d="M2.28613 45.7143V36.5714C2.28613 34.1466 3.2494 31.8211 4.96401 30.1064C6.67863 28.3918 9.00415 27.4286 11.429 27.4286H52.5718C54.9967 27.4286 57.3222 28.3918 59.0368 30.1064C60.7514 31.8211 61.7147 34.1466 61.7147 36.5714V45.7143M50.2861 2.28571L42.4233 10.1486M13.7147 2.28571L21.5776 10.1486" stroke="#1E1E1E" stroke-linecap="round" stroke-linejoin="round"/>
</svg>
