<svg width="24" height="24" viewBox="0 0 24 24" fill="none" xmlns="http://www.w3.org/2000/svg">
<path d="M18.5 22C19.0304 22 19.5391 21.7893 19.9142 21.4142C20.2893 21.0391 20.5 20.5304 20.5 20C20.5 19.4696 20.2893 18.9609 19.9142 18.5858C19.5391 18.2107 19.0304 18 18.5 18C17.9696 18 17.4609 18.2107 17.0858 18.5858C16.7107 18.9609 16.5 19.4696 16.5 20C16.5 20.5304 16.7107 21.0391 17.0858 21.4142C17.4609 21.7893 17.9696 22 18.5 22ZM5.5 6C6.03043 6 6.53914 5.78929 6.91421 5.41421C7.28929 5.03914 7.5 4.53043 7.5 4C7.5 3.46957 7.28929 2.96086 6.91421 2.58579C6.53914 2.21071 6.03043 2 5.5 2C4.96957 2 4.46086 2.21071 4.08579 2.58579C3.71071 2.96086 3.5 3.46957 3.5 4C3.5 4.53043 3.71071 5.03914 4.08579 5.41421C4.46086 5.78929 4.96957 6 5.5 6ZM5.5 22C6.03043 22 6.53914 21.7893 6.91421 21.4142C7.28929 21.0391 7.5 20.5304 7.5 20C7.5 19.4696 7.28929 18.9609 6.91421 18.5858C6.53914 18.2107 6.03043 18 5.5 18C4.96957 18 4.46086 18.2107 4.08579 18.5858C3.71071 18.9609 3.5 19.4696 3.5 20C3.5 20.5304 3.71071 21.0391 4.08579 21.4142C4.46086 21.7893 4.96957 22 5.5 22Z" stroke="#1E1E1E" stroke-linejoin="round"/>
<path d="M5.5 6V18M12 5H16.5C17.0304 5 17.5391 5.21071 17.9142 5.58579C18.2893 5.96086 18.5 6.46957 18.5 7V18" stroke="#1E1E1E" stroke-linecap="round" stroke-linejoin="round"/>
<path d="M15 8L12 5L15 2" stroke="#1E1E1E" stroke-linecap="round" stroke-linejoin="round"/>
</svg>
