<svg width="24" height="24" viewBox="0 0 24 24" fill="none" xmlns="http://www.w3.org/2000/svg">
<path d="M4 19V5C4 4.46957 4.21071 3.96086 4.58579 3.58579C4.96086 3.21071 5.46957 3 6 3H19.4C19.5591 3 19.7117 3.06321 19.8243 3.17574C19.9368 3.28826 20 3.44087 20 3.6V16.714" stroke="#1E1E1E" stroke-linecap="round"/>
<path d="M15 17V22L17.5 20.4L20 22V17" stroke="#1E1E1E" stroke-linecap="round" stroke-linejoin="round"/>
<path d="M6 17H20" stroke="#1E1E1E" stroke-linecap="round"/>
<path d="M6 17C5.46957 17 4.96086 17.2107 4.58579 17.5858C4.21071 17.9609 4 18.4696 4 19C4 19.5304 4.21071 20.0391 4.58579 20.4142C4.96086 20.7893 5.46957 21 6 21H11.5" stroke="#1E1E1E" stroke-linecap="round" stroke-linejoin="round"/>
</svg>
