<svg width="32" height="32" viewBox="0 0 32 32" fill="none" xmlns="http://www.w3.org/2000/svg">
<path d="M2.83387 14.9485L29.1196 2.99425M29.1196 2.99425L24.2053 1.14282M29.1196 2.99425L27.291 7.90854M30.2853 30.88H24.571V14.88C24.571 14.5769 24.6914 14.2862 24.9057 14.0718C25.1201 13.8575 25.4108 13.7371 25.7139 13.7371H29.1424C29.4455 13.7371 29.7362 13.8575 29.9506 14.0718C30.1649 14.2862 30.2853 14.5769 30.2853 14.88V30.88ZM18.8567 30.88H13.1424V18.3085C13.1424 18.0054 13.2628 17.7147 13.4772 17.5004C13.6915 17.2861 13.9822 17.1657 14.2853 17.1657H17.7139C18.017 17.1657 18.3077 17.2861 18.522 17.5004C18.7363 17.7147 18.8567 18.0054 18.8567 18.3085V30.88ZM7.42815 30.88H1.71387V21.7371C1.71387 21.434 1.83427 21.1433 2.0486 20.929C2.26293 20.7147 2.55362 20.5943 2.85672 20.5943H6.2853C6.5884 20.5943 6.87909 20.7147 7.09342 20.929C7.30774 21.1433 7.42815 21.434 7.42815 21.7371V30.88Z" stroke="#1E1E1E" stroke-linecap="round" stroke-linejoin="round"/>
</svg>
